<?xml version="1.0" encoding="UTF-8"?>
<svg width="118px" height="189px" viewBox="0 0 118 189" version="1.1" xmlns="http://www.w3.org/2000/svg" xmlns:xlink="http://www.w3.org/1999/xlink">
    <!-- Generator: Sketch 50.2 (55047) - http://www.bohemiancoding.com/sketch -->
    <title>資產 1</title>
    <desc>Created with Sketch.</desc>
    <defs>
        <linearGradient x1="59.955935%" y1="22.2152886%" x2="34.9490498%" y2="91.8564743%" id="linearGradient-1">
            <stop stop-color="#6BE726" stop-opacity="0.7" offset="0%"></stop>
            <stop stop-color="#0AB800" offset="100%"></stop>
        </linearGradient>
        <linearGradient x1="71.1637582%" y1="9.3565906%" x2="35.3515878%" y2="77.8398039%" id="linearGradient-2">
            <stop stop-color="#A8FF55" offset="0%"></stop>
            <stop stop-color="#6BE726" offset="100%"></stop>
        </linearGradient>
        <linearGradient x1="71.1608816%" y1="9.36639074%" x2="35.3501589%" y2="77.9213336%" id="linearGradient-3">
            <stop stop-color="#F7FF57" offset="0%"></stop>
            <stop stop-color="#F7D50F" offset="100%"></stop>
        </linearGradient>
        <linearGradient x1="72.1022231%" y1="9.44873277%" x2="35.812739%" y2="78.6063574%" id="linearGradient-4">
            <stop stop-color="#FF8F57" offset="0%"></stop>
            <stop stop-color="#F45E22" offset="100%"></stop>
        </linearGradient>
    </defs>
    <g id="Page-1" stroke="none" stroke-width="1" fill="none" fill-rule="evenodd">
        <g id="layout-a" transform="translate(-137.000000, -1835.000000)" fill-rule="nonzero">
            <g id="Group-4" transform="translate(137.000000, 1383.000000)">
                <g id="資產-1" transform="translate(0.000000, 452.000000)">
                    <polygon id="_路徑_" fill="#B9C4C6" points="118 143.580981 118 149.216329 49.1789905 189 0 160.581171 73.7281531 118"></polygon>
                    <polygon id="_路徑_2" fill="#B1D9DD" points="11 161.317227 50 184 50 144.338702 11 99"></polygon>
                    <polygon id="_路徑_3" fill="#BFDDE2" points="49 184 118 144.040595 118 104 49 144.013532"></polygon>
                    <polygon id="_路徑_4" fill="#DCF0F4" points="118 104.305591 49.881278 144 11 98.6541377 79.0522128 59"></polygon>
                    <g id="_群組_2" transform="translate(9.000000, 0.000000)">
                        <g id="_群組_3">
                            <path d="M0.4382846,98.8992 L0.4382846,41.0176 C0.475191268,40.2706257 0.860687305,39.5874134 1.47423002,39.1816 L67.4427031,0.1768 C68.0138012,-0.1632 68.4786485,0.1768 68.4786485,0.7888 L68.4786485,58.6704 C68.4395992,59.4167244 68.0546258,60.0990105 67.4427031,60.5064 L1.47423002,99.5112 C0.903131904,99.8512 0.4382846,99.5656 0.4382846,98.8992 Z" id="_路徑_5" fill="#FFFF8A" opacity="0.6"></path>
                            <g id="_剪裁群組_" transform="translate(1.328135, 0.000000)">
                                <path d="M0.982820013,99.96 L0.982820013,42.16 C1.02195318,41.4100675 1.40639513,40.7236763 2.01876543,40.3104 L67.9872385,1.2512 C68.5583366,0.9112 69.0231839,1.1832 69.0231839,1.8632 L69.0231839,59.7448 C68.9841346,60.4911244 68.5991612,61.1734105 67.9872385,61.5808 L2.01876543,100.64 C1.44766732,100.912 0.982820013,100.64 0.982820013,99.96 Z" id="_剪裁路徑_2" fill="#FF8F57" opacity="0.6"></path>
                                <path d="M2.1648603,101.2792 C1.8329815,101.271308 1.52044928,101.117632 1.30692992,100.857344 C1.09341056,100.597055 0.999532851,100.255303 1.04922677,99.9192 L1.04922677,42.16 C1.09156181,41.2083317 1.58813869,40.3388124 2.37736192,39.8344 L68.3192723,0.7752 C68.6940872,0.512721559 69.1826054,0.493306149 69.5761603,0.725246912 C69.9697151,0.957187676 70.1987289,1.39947916 70.1653801,1.8632 L70.1653801,59.7448 C70.1233055,60.6929556 69.6261076,61.5584709 68.837245,62.0568 L2.89533463,101.0616 C2.67277715,101.193954 2.42202186,101.268651 2.1648603,101.2792 Z M69.0630279,1.6456 C69.0630279,1.6456 69.0630279,1.6456 68.877089,1.7272 L2.89533463,40.8 C2.44346362,41.1035542 2.1579488,41.6076317 2.12501624,42.16 L2.12501624,99.96 C2.1090761,100.031615 2.1090761,100.105985 2.12501624,100.1776 C2.18659867,100.187762 2.24937274,100.187762 2.31095517,100.1776 L68.3192723,61.1048 C68.7680614,60.7982704 69.0526056,60.2959065 69.0895906,59.7448 L69.0895906,1.8632 C69.1044496,1.78965331 69.0951094,1.71313836 69.0630279,1.6456 Z" id="Shape" fill="#FFFFFF" opacity="0.8"></path>
                            </g>
                            <path d="M7.17192982,84.2248 C7.07695323,84.22948 6.98829761,84.1760785 6.94614685,84.0888 C6.90816367,84.0281918 6.89660341,83.9541022 6.91425295,83.8843921 C6.93190248,83.814682 6.97716045,83.7556764 7.03911631,83.7216 L36.2580897,66.4768 C36.3839135,66.4109255 36.5379676,66.4518237 36.6166862,66.572 C36.6551816,66.6347279 36.6670241,66.7108209 36.6494767,66.7826943 C36.6319293,66.8545677 36.5865107,66.916002 36.5237167,66.9528 L7.30474334,84.1976 C7.2645545,84.2212579 7.21791322,84.23081 7.17192982,84.2248 Z" id="Shape" fill="#DDFFCF"></path>
                            <path d="M7.17192982,78.5264 C7.07695323,78.53108 6.98829761,78.4776785 6.94614685,78.3904 C6.90765137,78.3276721 6.89580895,78.2515791 6.91335631,78.1797057 C6.93090367,78.1078323 6.97632233,78.046398 7.03911631,78.0096 L36.2580897,60.7784 C36.3839135,60.7125255 36.5379676,60.7534237 36.6166862,60.8736 C36.6551816,60.9363279 36.6670241,61.0124209 36.6494767,61.0842943 C36.6319293,61.1561677 36.5865107,61.217602 36.5237167,61.2544 L7.30474334,78.4992 L7.17192982,78.5264 Z" id="Shape" fill="#DDFFCF"></path>
                            <path d="M7.17192982,72.828 C7.07778503,72.8293488 6.9907369,72.7769155 6.94614685,72.692 C6.90765137,72.6292721 6.89580895,72.5531791 6.91335631,72.4813057 C6.93090367,72.4094323 6.97632233,72.347998 7.03911631,72.3112 L36.2580897,55.08 C36.3172778,55.0411055 36.3896315,55.0292679 36.4577083,55.0473409 C36.5257851,55.0654139 36.5834082,55.1117577 36.6166862,55.1752 C36.6551816,55.2379279 36.6670241,55.3140209 36.6494767,55.3858943 C36.6319293,55.4577677 36.5865107,55.519202 36.5237167,55.556 L7.30474334,72.7872 C7.26574729,72.8147283 7.21928433,72.8290017 7.17192982,72.828 Z" id="Shape" fill="#DDFFCF"></path>
                            <path d="M7.17192982,67.1296 C7.07778503,67.1309488 6.9907369,67.0785155 6.94614685,66.9936 C6.88341059,66.8688238 6.9236818,66.7156563 7.03911631,66.64 L36.2580897,49.3952 C36.3865251,49.3245483 36.5465687,49.3731064 36.6166862,49.504 C36.6546693,49.5646082 36.6662296,49.6386978 36.6485801,49.7084079 C36.6309305,49.778118 36.5856726,49.8371236 36.5237167,49.8712 L7.30474334,67.116 C7.26282236,67.1341358 7.21652779,67.1388763 7.17192982,67.1296 Z" id="Shape" fill="#DDFFCF"></path>
                            <path d="M7.17192982,61.4176 C7.07695323,61.42228 6.98829761,61.3688785 6.94614685,61.2816 C6.90816367,61.2209918 6.89660341,61.1469022 6.91425295,61.0771921 C6.93190248,61.007482 6.97716045,60.9484764 7.03911631,60.9144 L36.2580897,43.6696 C36.3839135,43.6037255 36.5379676,43.6446237 36.6166862,43.7648 C36.6551816,43.8275279 36.6670241,43.9036209 36.6494767,43.9754943 C36.6319293,44.0473677 36.5865107,44.108802 36.5237167,44.1456 L7.30474334,61.3904 L7.17192982,61.4176 Z" id="Shape" fill="#DDFFCF"></path>
                            <path d="M7.17192982,55.76 C7.07778503,55.7613488 6.9907369,55.7089155 6.94614685,55.624 C6.90765137,55.5612721 6.89580895,55.4851791 6.91335631,55.4133057 C6.93090367,55.3414323 6.97632233,55.279998 7.03911631,55.2432 L36.2580897,38.012 C36.3172778,37.9731055 36.3896315,37.9612679 36.4577083,37.9793409 C36.5257851,37.9974139 36.5834082,38.0437577 36.6166862,38.1072 C36.6551816,38.1699279 36.6670241,38.2460209 36.6494767,38.3178943 C36.6319293,38.3897677 36.5865107,38.451202 36.5237167,38.488 L7.30474334,55.7192 C7.26574729,55.7467283 7.21928433,55.7610017 7.17192982,55.76 Z" id="Shape" fill="#DDFFCF"></path>
                            <path d="M6.90630279,90.1816 L6.90630279,49.3136 C6.90630279,49.1633785 7.02522807,49.0416 7.17192982,49.0416 C7.31863158,49.0416 7.43755686,49.1633785 7.43755686,49.3136 L7.43755686,89.2296 L36.1916829,72.2296 C36.2529411,72.1901809 36.3272512,72.1780544 36.3974406,72.1960227 C36.4676301,72.2139911 36.5276249,72.2604995 36.5635608,72.3248 C36.6361584,72.4568854 36.5953495,72.6240373 36.4705913,72.7056 L6.90630279,90.1816 Z" id="Shape" fill="#DDFFCF"></path>
                            <path d="M31.4768031,75.616 C31.4039918,75.6160933 31.334335,75.5855769 31.2841203,75.5315864 C31.2339055,75.4775959 31.2075355,75.4048651 31.2111761,75.3304 L31.2111761,35.1152 C31.2111761,34.9649785 31.3301014,34.8432 31.4768031,34.8432 C31.6235049,34.8432 31.7424301,34.9649785 31.7424301,35.1152 L31.7424301,75.3304 C31.7460708,75.4048651 31.7197007,75.4775959 31.669486,75.5315864 C31.6192712,75.5855769 31.5496145,75.6160933 31.4768031,75.616 Z" id="Shape" fill="#DDFFCF"></path>
                            <path d="M26.5627031,78.4856 C26.4160013,78.4856 26.297076,78.3638215 26.297076,78.2136 L26.297076,37.9848 C26.297076,37.8345785 26.4160013,37.7128 26.5627031,37.7128 C26.7094048,37.7128 26.8283301,37.8345785 26.8283301,37.9848 L26.8283301,78.2136 C26.8283301,78.3638215 26.7094048,78.4856 26.5627031,78.4856 Z" id="Shape" fill="#DDFFCF"></path>
                            <path d="M21.7548538,81.3552 C21.6844051,81.3552 21.6168419,81.3265429 21.5670271,81.275533 C21.5172124,81.2245231 21.4892268,81.1553389 21.4892268,81.0832 L21.4892268,40.868 C21.4892268,40.7708238 21.539855,40.6810292 21.6220403,40.6324411 C21.7042256,40.5838529 21.805482,40.5838529 21.8876673,40.6324411 C21.9698526,40.6810292 22.0204808,40.7708238 22.0204808,40.868 L22.0204808,81.0832 C22.0204808,81.1553389 21.9924952,81.2245231 21.9426805,81.275533 C21.8928657,81.3265429 21.8253025,81.3552 21.7548538,81.3552 Z" id="Shape" fill="#DDFFCF"></path>
                            <path d="M16.8938791,84.2248 C16.7471774,84.2248 16.6282521,84.1030215 16.6282521,83.9528 L16.6282521,43.7376 C16.6282521,43.5873785 16.7471774,43.4656 16.8938791,43.4656 C17.0405809,43.4656 17.1595062,43.5873785 17.1595062,43.7376 L17.1595062,83.9528 C17.1595062,84.1030215 17.0405809,84.2248 16.8938791,84.2248 Z" id="Shape" fill="#DDFFCF"></path>
                            <path d="M12.0329045,87.108 C11.9600931,87.1080933 11.8904364,87.0775769 11.8402216,87.0235864 C11.7900069,86.9695959 11.7636368,86.8968651 11.7672775,86.8224 L11.7672775,46.6072 C11.7672775,46.4569785 11.8862027,46.3352 12.0329045,46.3352 C12.1056248,46.331472 12.1766516,46.3584747 12.2293771,46.4098943 C12.2821026,46.4613138 12.3119039,46.5326417 12.3118129,46.6072 L12.3118129,86.8224 C12.3156713,86.8992891 12.2875275,86.9742509 12.2343625,87.0286914 C12.1811975,87.083132 12.1079921,87.111951 12.0329045,87.108 Z" id="Shape" fill="#DDFFCF"></path>
                            <path d="M0.4382846,40.9768 L0.4382846,98.8584 C0.423357419,99.106375 0.521449346,99.3474439 0.703911631,99.5112 C0.703911631,99.5112 0.703911631,99.5112 0.703911631,99.5112 L2.65627031,100.64 C2.45916753,100.474538 2.3547484,100.219957 2.37736192,99.96 L2.37736192,42.0784 C2.42362131,41.3308491 2.81278625,40.6498649 3.42658869,40.2424 L67.9872385,2.0264 L68.4786485,1.7408 L69.3153736,1.2512 C69.5239118,1.11218949 69.7826532,1.07719621 70.0192853,1.156 L68.1864587,0.068 C67.958176,-0.00609836058 67.7094535,0.0288590778 67.5091098,0.1632 L1.48751137,39.1408 C0.868901835,39.5435416 0.478167989,40.2272712 0.4382846,40.9768 Z" id="_路徑_6" fill="#F45E22" opacity="0.6"></path>
                        </g>
                    </g>
                    <g id="_群組_4" transform="translate(15.000000, 51.000000)" fill="#FF6E1D">
                        <path d="M10.8739583,17.1178571 L5.76875,7.84857143 L1.40833333,15.815 C1.32245422,15.9736959 1.17701563,16.091553 1.00419856,16.1424933 C0.8313815,16.1934336 0.645433851,16.1732572 0.4875,16.0864286 C0.329152105,16.0003607 0.211553435,15.8546025 0.160724887,15.6814056 C0.109896339,15.5082087 0.130028469,15.3218524 0.216666667,15.1635714 L5.76875,5.02571429 L10.5895833,13.7792857 L15.315625,0.00428571429 L24.3614583,5.51428571 C24.6450399,5.72298145 24.7218851,6.11457046 24.5382826,6.41534954 C24.35468,6.71612862 23.9718144,6.82586469 23.6572917,6.66785714 L16.046875,2.04 L10.8739583,17.1178571 Z" id="Shape"></path>
                        <polygon id="Shape" points="20.5020833 6.65428571 23.6572917 5.88071429 22.8854167 2.71857143 24.5645833 3.73642857 25.3229167 6.89857143 22.1677083 7.65857143"></polygon>
                    </g>
                    <path d="M11,99 L20.7878863,110.556243 L30.5090977,122.167845 L49.9381854,145.391048 L49.5648056,145.391048 C60.8995513,138.471143 72.3409771,131.800353 83.7290628,124.991166 L100.837861,114.749706 L118,104.674323 L100.971211,115.068021 L83.9690927,125.351001 C72.594342,132.187868 61.2996012,139.190813 49.8581755,145.875442 L49.6448156,146 L49.4847956,145.806243 L30.2023928,122.444641 L20.5745264,110.75 L11,99 Z" id="_路徑_7" fill="#FFFFFF"></path>
                    <polygon id="_路徑_8" fill="#FFFFFF" points="49.25 184 49 144 49.5 144"></polygon>
                    <polygon id="_路徑_9" fill="#6BE726" points="73 119.634825 48.7688229 134 23 103.324365 47.1648993 89"></polygon>
                    <polygon id="_路徑_10" fill="#A8FF55" points="73 120.038066 49.3974112 134 24 103.90702 47.5486092 90"></polygon>
                    <polygon id="_路徑_11" fill="url(#linearGradient-1)" opacity="0.5" points="73 120.038066 49.3974112 134 24 103.90702 47.5486092 90"></polygon>
                    <polygon id="_路徑_12" fill="#0AB800" points="46.7893582 90.4767025 47 89 23 104.096774 23.816237 105"></polygon>
                    <g id="_群組_5" opacity="0.7" transform="translate(27.000000, 92.000000)" fill="#F0F2DD">
                        <g id="_群組_6" opacity="0.6" transform="translate(0.000000, 0.057143)">
                            <path d="M21.386129,35.3746429 C21.3429279,35.3871239 21.2970721,35.3871239 21.253871,35.3746429 L0.700967742,11.5889286 C0.671084638,11.559175 0.65428775,11.5187583 0.65428775,11.4766071 C0.65428775,11.434456 0.671084638,11.3940393 0.700967742,11.3642857 C0.767490237,11.3005194 0.872509763,11.3005194 0.939032258,11.3642857 L21.4919355,35.15 C21.5557574,35.2164645 21.5557574,35.3213926 21.4919355,35.3878571 C21.4561563,35.3947667 21.4191051,35.3901393 21.386129,35.3746429 Z" id="Shape"></path>
                            <path d="M23.8064516,33.9739286 C23.764129,33.9915476 23.7165161,33.9915476 23.6741935,33.9739286 L3.12129032,10.1882143 C3.06562228,10.1464996 3.04060846,10.075373 3.05792515,10.0080357 C3.07524184,9.9406985 3.13147432,9.89042906 3.20037367,9.88069282 C3.26927302,9.87095657 3.33725285,9.90367345 3.37258065,9.96357143 L23.9254839,33.7492857 C23.955367,33.7790393 23.9721639,33.819456 23.9721639,33.8616071 C23.9721639,33.9037583 23.955367,33.944175 23.9254839,33.9739286 C23.887072,33.9880888 23.8448634,33.9880888 23.8064516,33.9739286 Z" id="Shape"></path>
                            <path d="M26.2267742,32.5864286 C26.1841915,32.6026963 26.1370988,32.6026963 26.0945161,32.5864286 L5.5416129,8.80071429 C5.48383915,8.73193486 5.48383915,8.63163657 5.5416129,8.56285714 C5.6081354,8.49909084 5.71315492,8.49909084 5.77967742,8.56285714 L26.3325806,32.3485714 C26.3964025,32.415036 26.3964025,32.519964 26.3325806,32.5864286 C26.2981886,32.5975406 26.2611662,32.5975406 26.2267742,32.5864286 Z" id="Shape"></path>
                            <path d="M28.6470968,31.1857143 C28.6038957,31.1981953 28.5580398,31.1981953 28.5148387,31.1857143 L7.93548387,7.3075 C7.90560077,7.27774642 7.88880388,7.23732973 7.88880388,7.19517857 C7.88880388,7.15302741 7.90560077,7.11261073 7.93548387,7.08285714 C8.00200637,7.01909084 8.10702589,7.01909084 8.17354839,7.08285714 L28.7264516,30.8685714 C28.7902735,30.935036 28.7902735,31.039964 28.7264516,31.1064286 C28.7096202,31.1409812 28.6816795,31.1688975 28.6470968,31.1857143 Z" id="Shape"></path>
                            <path d="M31.0674194,29.785 C31.0250968,29.802619 30.9774839,29.802619 30.9351613,29.785 L10.3822581,5.99928571 C10.32659,5.95757105 10.3015762,5.88644439 10.3188929,5.81910716 C10.3362096,5.75176993 10.3924421,5.70150049 10.4613414,5.69176424 C10.5302408,5.682028 10.5982206,5.71474487 10.6335484,5.77464286 L31.1864516,29.5603571 C31.2163347,29.5901107 31.2331316,29.6305274 31.2331316,29.6726786 C31.2331316,29.7148297 31.2163347,29.7552464 31.1864516,29.785 L31.0674194,29.785 Z" id="Shape"></path>
                            <path d="M33.4877419,28.3975 C33.4363853,28.3947832 33.3884731,28.370848 33.3554839,28.3314286 L12.8025806,4.54571429 C12.7647796,4.5008647 12.7537979,4.43927293 12.7737721,4.38414002 C12.7937464,4.32900711 12.8416421,4.28870905 12.8994173,4.27842573 C12.9571926,4.26814241 13.01607,4.28943612 13.053871,4.33428571 L33.6067742,28.12 C33.6705961,28.1864645 33.6705961,28.2913926 33.6067742,28.3578571 L33.4877419,28.3975 Z" id="Shape"></path>
                            <path d="M35.9080645,26.9967857 C35.8648634,27.0092668 35.8190076,27.0092668 35.7758065,26.9967857 L15.2229032,3.21107143 C15.1930201,3.18131785 15.1762232,3.14090116 15.1762232,3.09875 C15.1762232,3.05659884 15.1930201,3.01618215 15.2229032,2.98642857 C15.2894257,2.92266227 15.3944452,2.92266227 15.4609677,2.98642857 L36.0270968,26.6928571 C36.0909187,26.7593217 36.0909187,26.8642497 36.0270968,26.9307143 L35.9080645,26.9967857 Z" id="Shape"></path>
                            <path d="M38.3548387,25.5960714 C38.3169767,25.613031 38.2736684,25.613031 38.2358065,25.5960714 L17.6829032,1.81035714 C17.6251295,1.74157772 17.6251295,1.64127943 17.6829032,1.5725 C17.7494257,1.5087337 17.8544452,1.5087337 17.9209677,1.5725 L38.4474194,25.3714286 C38.4773025,25.4011822 38.4940993,25.4415988 38.4940993,25.48375 C38.4940993,25.5259012 38.4773025,25.5663178 38.4474194,25.5960714 C38.4169374,25.6028989 38.3853206,25.6028989 38.3548387,25.5960714 Z" id="Shape"></path>
                            <path d="M40.7354839,24.2085714 C40.6878856,24.2055365 40.6441769,24.1812751 40.6164516,24.1425 L20.0635484,0.356785714 C19.9997265,0.290321166 19.9997265,0.18539312 20.0635484,0.118928571 C20.1300709,0.0551622696 20.2350904,0.0551622696 20.3016129,0.118928571 L40.8545161,23.9046429 C40.8843992,23.9343964 40.9011961,23.9748131 40.9011961,24.0169643 C40.9011961,24.0591154 40.8843992,24.0995321 40.8545161,24.1292857 C40.8296861,24.1730956 40.785509,24.2025214 40.7354839,24.2085714 Z" id="Shape"></path>
                        </g>
                        <g id="_群組_7" opacity="0.6">
                            <path d="M21.386129,35.4317857 C21.3258357,35.4382321 21.2678635,35.4066384 21.2406452,35.3525 C21.1848527,35.2879935 21.1848527,35.1923637 21.2406452,35.1278571 L40.59,23.9617857 C40.6666963,23.9143484 40.76736,23.9380134 40.8148387,24.0146429 C40.8623173,24.0912724 40.8386318,24.1918484 40.7619355,24.2392857 L21.4654839,35.4053571 L21.386129,35.4317857 Z" id="Shape"></path>
                            <path d="M19.6667742,33.4364286 C19.6111403,33.437445 19.5597992,33.4066671 19.5345161,33.3571429 C19.504633,33.3273893 19.4878361,33.2869726 19.4878361,33.2448214 C19.4878361,33.2026703 19.504633,33.1622536 19.5345161,33.1325 L38.883871,21.9664286 C38.9616336,21.9382269 39.0484732,21.9693535 39.0905588,22.0405133 C39.1326444,22.1116731 39.1180433,22.2026896 39.0558065,22.2571429 L19.7593548,33.4232143 L19.6667742,33.4364286 Z" id="Shape"></path>
                            <path d="M17.9606452,31.4542857 C17.9023592,31.4522245 17.8484519,31.4228461 17.8151613,31.375 C17.7748003,31.2943818 17.8036713,31.1963056 17.8812903,31.1503571 L37.2306452,19.9842857 C37.2952079,19.9285418 37.3909211,19.9285418 37.4554839,19.9842857 C37.5132576,20.0530651 37.5132576,20.1533634 37.4554839,20.2221429 L18.04,31.4278571 L17.9606452,31.4542857 Z" id="Shape"></path>
                            <path d="M16.2545161,29.4589286 C16.1962302,29.4568673 16.1423229,29.4274889 16.1090323,29.3796429 C16.0532398,29.3151363 16.0532398,29.2195065 16.1090323,29.155 L35.4583871,17.9889286 C35.5229499,17.9331847 35.618663,17.9331847 35.6832258,17.9889286 C35.7235868,18.0695468 35.6947158,18.167623 35.6170968,18.2135714 L16.333871,29.3928571 L16.2545161,29.4589286 Z" id="Shape"></path>
                            <path d="M14.5483871,27.4767857 C14.4895033,27.4769916 14.4346097,27.4470757 14.4029032,27.3975 C14.3625422,27.3168818 14.3914133,27.2188056 14.4690323,27.1728571 L33.8051613,16.0067857 C33.8740007,15.9490623 33.9743864,15.9490623 34.0432258,16.0067857 C34.0850923,16.0913217 34.0566034,16.1937922 33.9770968,16.2446429 L14.6277419,27.4503571 L14.5483871,27.4767857 Z" id="Shape"></path>
                            <path d="M12.8422581,25.4946429 C12.7853938,25.5003991 12.7298237,25.475162 12.6967742,25.4285714 C12.6668911,25.3988178 12.6500942,25.3584012 12.6500942,25.31625 C12.6500942,25.2740988 12.6668911,25.2336822 12.6967742,25.2039286 L32.046129,14.0378571 C32.1106918,13.9821133 32.206405,13.9821133 32.2709677,14.0378571 C32.3008508,14.0676107 32.3176477,14.1080274 32.3176477,14.1501786 C32.3176477,14.1923297 32.3008508,14.2327464 32.2709677,14.2625 L12.9216129,25.4285714 L12.8422581,25.4946429 Z" id="Shape"></path>
                            <path d="M11.1229032,23.4992857 C11.0646173,23.4972245 11.01071,23.4678461 10.9774194,23.42 C10.9370583,23.3393818 10.9659294,23.2413056 11.0435484,23.1953571 L30.4193548,12.0292857 C30.4491344,11.9994286 30.4895863,11.9826464 30.5317742,11.9826464 C30.5739621,11.9826464 30.614414,11.9994286 30.6441935,12.0292857 C30.699986,12.0937923 30.699986,12.189422 30.6441935,12.2539286 L11.2154839,23.4728571 C11.1890433,23.4929759 11.1559908,23.5024113 11.1229032,23.4992857 Z" id="Shape"></path>
                            <path d="M9.41677419,21.4642857 C9.36617547,21.4863496 9.30866324,21.4863496 9.25806452,21.4642857 C9.20227203,21.3997792 9.20227203,21.3041494 9.25806452,21.2396429 L28.6074194,10.0735714 C28.6881079,10.0332456 28.7862696,10.0620915 28.8322581,10.1396429 C28.8880506,10.2041494 28.8880506,10.2997792 28.8322581,10.3642857 L9.49612903,21.4642857 L9.41677419,21.4642857 Z" id="Shape"></path>
                            <path d="M7.71064516,19.5217857 C7.65176139,19.5219916 7.59686777,19.4920757 7.56516129,19.4425 C7.52480026,19.3618818 7.55367135,19.2638056 7.63129032,19.2178571 L26.9806452,8.05178571 C27.0613337,8.01145984 27.1594954,8.04030578 27.2054839,8.11785714 C27.2612764,8.18236369 27.2612764,8.27799345 27.2054839,8.3425 L7.79,19.4953571 C7.76926646,19.5162843 7.73979922,19.5260981 7.71064516,19.5217857 Z" id="Shape"></path>
                            <path d="M6.00451613,17.5 C5.94202349,17.5004742 5.88506981,17.4642625 5.85903226,17.4075 C5.80323977,17.3429935 5.80323977,17.2473637 5.85903226,17.1828571 L25.2612903,6.06964286 C25.3109041,6.03895628 25.3731346,6.03704632 25.42454,6.06463244 C25.4759454,6.09221856 25.5087161,6.14510977 25.5105077,6.20338245 C25.5122993,6.26165514 25.4828396,6.3164563 25.4332258,6.34714286 L6.08387097,17.5 L6.00451613,17.5 Z" id="Shape"></path>
                            <path d="M4.28516129,15.5442857 C4.22952745,15.5453021 4.17818626,15.5145242 4.15290323,15.465 C4.12302012,15.4352464 4.10622323,15.3948297 4.10622323,15.3526786 C4.10622323,15.3105274 4.12302012,15.2701107 4.15290323,15.2403571 L23.5022581,4.07428571 C23.5668209,4.01854183 23.662534,4.01854183 23.7270968,4.07428571 C23.7569799,4.1040393 23.7737768,4.14445598 23.7737768,4.18660714 C23.7737768,4.22875831 23.7569799,4.26917499 23.7270968,4.29892857 L4.37774194,15.5178571 C4.35291368,15.5409984 4.31847813,15.5508286 4.28516129,15.5442857 Z" id="Shape"></path>
                            <path d="M2.64516129,13.5357143 C2.58508885,13.5286524 2.53152268,13.4945945 2.49967742,13.4432143 C2.45931639,13.3625961 2.48818747,13.2645199 2.56580645,13.2185714 L21.9151613,2.06571429 C21.9449408,2.03585721 21.9853927,2.01907496 22.0275806,2.01907496 C22.0697686,2.01907496 22.1102205,2.03585721 22.14,2.06571429 C22.1957925,2.13022083 22.1957925,2.22585059 22.14,2.29035714 L2.64516129,13.5357143 Z" id="Shape"></path>
                            <path d="M0.872903226,11.5667857 C0.814617309,11.5647245 0.760709951,11.5353461 0.727419355,11.4875 C0.687058328,11.4068818 0.71592941,11.3088056 0.793548387,11.2628571 L20.1429032,0.0967857143 C20.207466,0.0410418277 20.3031791,0.0410418277 20.3677419,0.0967857143 C20.4235344,0.161292263 20.4235344,0.256922023 20.3677419,0.321428571 L0.952258065,11.5535714 L0.872903226,11.5667857 Z" id="Shape"></path>
                        </g>
                    </g>
                    <path d="M38.1672899,116.999376 C38.1077165,116.997183 38.0526184,116.965938 38.0185924,116.915051 C37.9773398,116.829309 38.0068487,116.725 38.0861822,116.676132 C38.6404182,116.338833 38.5187566,115.270722 38.3970951,114.005854 C38.2213617,112.305309 38.0321104,110.365844 39.4650132,109.452328 C40.8979161,108.538812 42.9120909,110.492331 44.9668196,112.586391 C47.0215483,114.680451 49.0222051,116.70424 50.3740003,115.720453 C51.7257955,114.736667 51.2526672,112.909635 50.7525029,111.054495 C50.171231,108.848002 49.5629232,106.571239 51.6582057,105.334479 C53.4696112,104.252314 55.7135912,106.009076 57.6466583,107.56908 C59.2282587,108.819894 60.7152334,110.014492 61.7020438,109.452328 C61.7553739,109.398664 61.835382,109.385618 61.9019534,109.419732 C61.9685249,109.453846 62.0073052,109.527763 61.9988507,109.604423 C61.9903962,109.681083 61.9365298,109.743956 61.8642593,109.761518 C60.7422693,110.422061 59.1606689,109.171246 57.4979608,107.850162 C55.6324835,106.360428 53.4425753,104.673937 51.8744929,105.629615 C50.0090156,106.739888 50.5226978,108.791786 51.1310056,110.956116 C51.7393134,113.120446 52.1854058,114.933424 50.6038055,116.015589 C49.0222051,117.097754 46.818779,114.961532 44.7370144,112.839364 C42.8580191,110.928008 40.924952,108.946381 39.6407466,109.761518 C38.3565412,110.576656 38.5728284,112.361525 38.7350438,113.977746 C38.8837413,115.383155 39.0054029,116.535591 38.2619155,116.971268 C38.2348909,116.992665 38.2011083,117.0027 38.1672899,116.999376 Z" id="Shape" fill="#F0F2DD"></path>
                    <g id="_群組_8" transform="translate(54.000000, 68.000000)">
                        <g id="_群組_9" transform="translate(27.000000, 39.077975)">
                            <path d="M4.536,5.37149111 C3.23575634,6.17383428 1.57121411,5.97468856 0.486,4.88694938 C0.0679724723,4.36774667 -0.0844429343,3.67566109 0.0754259362,3.02262088 C0.235294807,2.36958067 0.688402562,1.83338337 1.296,1.57822161 C2.59537837,0.782190873 4.25329613,0.974876807 5.346,2.04891929 C5.76385023,2.5705686 5.91609206,3.26433689 5.75643072,3.91925822 C5.59676938,4.57417955 5.14407275,5.11285899 4.536,5.37149111 Z" id="_路徑_13" fill="#6BE726"></path>
                            <path d="M4.9545,4.81772914 C3.65425634,5.62007231 1.98971411,5.42092659 0.9045,4.33318741 C0.486472472,3.8139847 0.334057066,3.12189912 0.493925936,2.46885891 C0.653794807,1.8158187 1.10690256,1.2796214 1.7145,1.02445964 C3.01387837,0.228428903 4.67179613,0.421114837 5.7645,1.49515732 C6.18235023,2.01680663 6.33459206,2.71057492 6.17493072,3.36549625 C6.01526938,4.02041758 5.56257275,4.55909702 4.9545,4.81772914 Z" id="_路徑_14" fill="url(#linearGradient-2)"></path>
                            <path d="M4.9545,4.81772914 L4.6305,4.97001368 C4.51654194,5.04137026 4.39401307,5.09721539 4.266,5.13614227 C4.1000959,5.20025224 3.92818642,5.24664451 3.753,5.27458276 C3.30755505,5.36743923 2.84844495,5.36743923 2.403,5.27458276 C1.89944967,5.18408649 1.43130032,4.9488472 1.053,4.59622435 C0.861646344,4.41805892 0.701789492,4.20729071 0.5805,3.97324213 C0.471193193,3.73311825 0.402707372,3.47560389 0.378,3.21181943 C0.361076696,2.96775099 0.393241924,2.72271984 0.4725,2.49192886 C0.529268461,2.28364888 0.6206043,2.08695544 0.7425,1.9104788 C0.920314544,1.64352998 1.15014737,1.41726744 1.4175,1.24596443 L1.7145,1.05214774 L1.431,1.25980848 C1.18512621,1.45040709 0.97476369,1.68488931 0.81,1.95201094 C0.69509166,2.12572101 0.608463456,2.3174196 0.5535,2.51961696 C0.489696266,2.73939078 0.466797706,2.96951569 0.486,3.19797538 C0.502635553,3.44386297 0.566886721,3.6838858 0.675,3.90402189 C0.802103359,4.12591062 0.961431538,4.32664528 1.1475,4.49931601 C1.52085381,4.85933895 1.99127809,5.09572137 2.4975,5.17767442 C2.94339058,5.26587185 3.40160942,5.26587185 3.8475,5.17767442 C4.01610754,5.15157698 4.18293959,5.11458589 4.347,5.06692202 C4.48208103,5.03572867 4.61338038,4.98929918 4.7385,4.92848153 L4.9545,4.81772914 Z" id="_路徑_15" fill="#FFFFFF"></path>
                        </g>
                        <g id="_群組_10" transform="translate(36.450000, 33.540356)">
                            <path d="M5.0355,5.05307798 C3.74154336,5.87435566 2.06740999,5.67978512 0.9855,4.5823803 C0.572533707,4.06300753 0.421732742,3.37473988 0.578352692,2.72412748 C0.734972642,2.07351508 1.18078469,1.53628195 1.782,1.27365253 C3.08240177,0.482496218 4.73723494,0.674823656 5.832,1.74435021 C6.24496629,2.26372298 6.39576726,2.95199062 6.23914731,3.60260302 C6.08252736,4.25321542 5.63671531,4.79044855 5.0355,5.05307798 Z" id="_路徑_16" fill="#F7D50F"></path>
                            <path d="M5.4675,4.49931601 C4.17131162,5.31031534 2.50382817,5.11651767 1.4175,4.02861833 C0.999472472,3.50941561 0.847057066,2.81733004 1.00692594,2.16428982 C1.16679481,1.51124961 1.61990256,0.975052321 2.2275,0.719890561 C3.52687837,-0.07614018 5.18479613,0.116545754 6.2775,1.19058824 C6.69552753,1.70979095 6.84794293,2.40187653 6.68807406,3.05491674 C6.52820519,3.70795695 6.07509744,4.24415425 5.4675,4.49931601 Z" id="_路徑_17" fill="url(#linearGradient-3)"></path>
                            <path d="M5.4675,4.49931601 L5.1435,4.6654446 C5.02954194,4.73680118 4.90701307,4.7926463 4.779,4.83157319 C4.61257148,4.89398324 4.44082695,4.94033099 4.266,4.97001368 C3.82055505,5.06287014 3.36144495,5.06287014 2.916,4.97001368 C2.41053228,4.88562357 1.94076972,4.64957365 1.566,4.29165527 C1.37060777,4.11387085 1.20624674,3.9031836 1.08,3.66867305 C0.974587988,3.42796486 0.910642255,3.17034723 0.891,2.90725034 C0.874076696,2.66318191 0.906241924,2.41815075 0.9855,2.18735978 C1.04226846,1.9790798 1.1336043,1.78238635 1.2555,1.60590971 C1.42941619,1.33560372 1.6600354,1.10856701 1.9305,0.941395349 L2.2275,0.747578659 L1.944,0.955239398 C1.69489181,1.14215594 1.4839165,1.3773212 1.323,1.64744186 C1.20809166,1.82115192 1.12146346,2.01285052 1.0665,2.21504788 C1.01855165,2.43849429 1.01855165,2.66995988 1.0665,2.89340629 C1.08313555,3.13929389 1.14738672,3.37931671 1.2555,3.5994528 C1.37778754,3.82087452 1.53260254,4.02165983 1.7145,4.19474692 C2.09280032,4.54736977 2.56094967,4.78260906 3.0645,4.87310534 C3.51039058,4.96130277 3.96860942,4.96130277 4.4145,4.87310534 C4.58479041,4.84959842 4.75220649,4.80783776 4.914,4.74850889 C5.04468089,4.72373869 5.17171955,4.68186418 5.292,4.62391245 L5.4675,4.49931601 Z" id="_路徑_18" fill="#FFFFFF"></path>
                        </g>
                        <g id="_群組_11" transform="translate(46.900000, 27.925825)">
                            <path d="M4.562,4.82542028 C3.26581162,5.63641961 1.59832817,5.44262194 0.512,4.3547226 C0.0932709045,3.83740409 -0.0611038222,3.14695186 0.0960228533,2.49423448 C0.253149529,1.8415171 0.703116143,1.30405584 1.3085,1.04599483 C2.60787837,0.249964091 4.26579613,0.442650025 5.3585,1.51669251 C5.77146629,2.03606528 5.92226726,2.72433292 5.76564731,3.37494532 C5.60902736,4.02555772 5.16321531,4.56279086 4.562,4.82542028 Z" id="_路徑_19" fill="#F45E22"></path>
                            <path d="M4.9805,4.23012616 C3.68431162,5.0411255 2.01682817,4.84732782 0.9305,3.75942848 C0.526967685,3.24708803 0.378787117,2.57141071 0.52956412,1.93123142 C0.680341124,1.29105213 1.11291866,0.759217399 1.7,0.492232862 C2.99937837,-0.303797879 4.65729613,-0.111111945 5.75,0.962930537 C6.14809941,1.47716978 6.29293592,2.15083224 6.14261686,2.78906714 C5.99229781,3.42730204 5.56359247,3.95890924 4.9805,4.23012616 Z" id="_路徑_20" fill="url(#linearGradient-4)"></path>
                            <path d="M4.9805,4.23012616 L4.67,4.39625475 C4.55245715,4.47000579 4.42514273,4.52595967 4.292,4.56238334 C4.12664593,4.62824587 3.95454885,4.67468876 3.779,4.70082383 C3.33355505,4.7936803 2.87444495,4.7936803 2.429,4.70082383 C1.92544967,4.61032756 1.45730032,4.37508827 1.079,4.02246542 C0.89153435,3.84064301 0.732202906,3.63056755 0.6065,3.3994832 C0.501087988,3.15877502 0.437142255,2.90115738 0.4175,2.6380605 C0.401989287,2.39505242 0.42943023,2.15117 0.4985,1.91816993 C0.565485406,1.71148429 0.660951931,1.51568528 0.782,1.33671987 C0.951339353,1.06733393 1.17737345,0.840269823 1.4435,0.672205502 L1.7,0.492232862 L1.4165,0.699893601 C1.17546494,0.891738285 0.969741405,1.12614543 0.809,1.39209606 C0.68472047,1.56203167 0.593092394,1.75465629 0.539,1.95970208 C0.475196266,2.1794759 0.452297706,2.40960081 0.4715,2.6380605 C0.501016906,2.88151457 0.564674303,3.11931924 0.6605,3.34410701 C0.791121748,3.56346633 0.950060943,3.76371092 1.133,3.93940112 C1.50776972,4.29731951 1.97753228,4.53336943 2.483,4.61775954 C2.92809224,4.71414407 3.38790776,4.71414407 3.833,4.61775954 C4.00275487,4.59845402 4.17013088,4.56134232 4.3325,4.50700714 C4.46263259,4.48004436 4.58941938,4.43825287 4.7105,4.3824107 L4.9805,4.23012616 Z" id="_路徑_21" fill="#FFFFFF"></path>
                        </g>
                        <polygon id="_路徑_22" fill="#B2CCCE" points="24.9615 1.64366621 28.2825 5.53384405 3.6045 20.139316 0.2835 16.2491382"></polygon>
                        <polygon id="_路徑_23" fill="#B2CCCE" points="24.9615 1.64366621 25.191 0.231573187 28.4985 4.12175103 28.2825 5.53384405"></polygon>
                        <polygon id="_路徑_24" fill="#BFDDE2" points="0.2835 16.2491382 0.513 14.8370451 3.834 18.727223 3.6045 20.139316"></polygon>
                        <polygon id="_路徑_25" fill="#B2CCCE" points="3.834 18.727223 28.4985 4.12175103 28.2825 5.53384405 3.6045 20.139316"></polygon>
                        <polygon id="_路徑_26" fill="#DCF0F4" points="28.4985 4.12175103 25.191 0.231573187 0.513 14.8370451 3.834 18.727223"></polygon>
                        <polygon id="_路徑_27" fill="#2D5656" points="2.403 15.1554583 24.9345 1.82363885 26.622 3.80333789 4.0905 17.1351573"></polygon>
                        <path d="M0.513,14.8370451 C4.563,12.2897401 8.6445,9.79781122 12.7575,7.36125855 C16.8705,4.92470588 20.997,2.51584131 25.137,0.134664843 L25.218,0.134664843 L25.218,0.203885089 L28.4445,4.17712722 L25.11,0.314637483 L25.245,0.314637483 C21.168,2.80656635 17.0685,5.26157775 12.9465,7.67967168 C8.829,10.1162244 4.698,12.5112449 0.513,14.8370451 Z" id="_路徑_28" fill="#FFFFFF"></path>
                        <polygon id="_路徑_29" fill="#1E4647" points="2.403 15.1554583 24.9345 1.82363885 24.705 3.23573187 3.1455 16.0276334"></polygon>
                        <g id="_群組_12" transform="translate(4.050000, 4.467852)" fill="#52B3AC" opacity="0.5">
                            <path d="M16.4295,35.1638851 C11.8665,32.2981669 8.532,25.2653899 6.6285,21.1121751 C4.725,16.9589603 2.5785,14.1901505 0.0405,12.6673051 L20.466,0.0969083447 C23.9985087,1.70038304 26.8298395,4.58415261 28.4175,8.19567715 C30.321,12.3488919 33.6555,19.3816689 38.2185,22.2473871 L16.4295,35.1638851 Z" id="Shape" style="mix-blend-mode: multiply;"></path>
                        </g>
                        <path d="M20.8845,38.1781122 C16.335,35.2985499 12.987,28.2657729 11.0835,24.1125581 C9.50067507,20.5056666 6.67347606,17.6261389 3.1455,16.0276334 L24.9345,3.08344733 C28.4624761,4.68195281 31.2896751,7.56148057 32.8725,11.1683721 C34.776,15.3215869 38.124,22.3543639 42.6735,25.2339261 L20.8845,38.1781122 Z" id="_路徑_30" fill="#FFFFFF"></path>
                        <g id="_群組_13" transform="translate(5.400000, 4.467852)" fill="#1E4647">
                            <polygon id="Shape" points="1.2285 11.3798085 0.9045 10.7845144 19.2645 0.055376197 19.602 0.664514364"></polygon>
                            <rect id="Rectangle-path" transform="translate(13.420011, 7.538570) rotate(-29.780000) translate(-13.420011, -7.538570) " x="2.85578589" y="7.03858837" width="21.1275" height="1"></rect>
                            <polygon id="Shape" points="6.696 15.7822161 6.3585 15.186922 24.732 4.45778386 25.0695 5.06692202"></polygon>
                            <rect id="Rectangle-path" transform="translate(17.217659, 13.683234) rotate(-29.770000) translate(-17.217659, -13.683234) " x="6.65344008" y="13.1832518" width="21.1275" height="1"></rect>
                            <polygon id="Shape" points="9.3285 22.6765527 8.991 22.0812585 27.3645 11.3521204 27.6885 11.9612585"></polygon>
                            <polygon id="Shape" points="10.9755 26.1237209 10.6515 25.5284268 29.0115 14.8131327 29.349 15.4084268"></polygon>
                            <polygon id="Shape" points="13.122 29.1417237 12.7845 28.5325855 31.158 17.8172914 31.482 18.4264295"></polygon>
                            <polygon id="Shape" points="15.741 31.2875513 15.417 30.6922572 33.777 19.9769631 34.1145 20.5722572"></polygon>
                        </g>
                    </g>
                </g>
            </g>
        </g>
    </g>
</svg>