<?xml version="1.0" encoding="UTF-8"?>
<svg width="96px" height="84px" viewBox="0 0 96 84" version="1.1" xmlns="http://www.w3.org/2000/svg" xmlns:xlink="http://www.w3.org/1999/xlink">
    <!-- Generator: Sketch 50.2 (55047) - http://www.bohemiancoding.com/sketch -->
    <title>Group 10</title>
    <desc>Created with Sketch.</desc>
    <defs></defs>
    <g id="Page-1" stroke="none" stroke-width="1" fill="none" fill-rule="evenodd">
        <g id="Group-10" transform="translate(-1.000000, 0.000000)" fill-rule="nonzero">
            <g id="124107" transform="translate(26.188322, 47.520104) rotate(7.000000) translate(-26.188322, -47.520104) translate(4.688322, 12.520104)">
                <g id="Group" fill="#BBDEFF">
                    <path d="M42.2974607,6.21894651 L42.2974607,8.91340957 L20.9117779,12.5686293 L0.0130704507,8.91340957 L0.0130704507,6.21894651 C0.0130704507,2.78350947 2.79303405,0 6.22409473,0 L36.0865712,0 C39.5156107,0 42.2974607,2.78350947 42.2974607,6.21894651 Z" id="Shape"></path>
                    <path d="M42.2974607,59.7937122 L42.2974607,62.8594717 C42.2974607,66.2947739 39.5156107,69.0784182 36.0864364,69.0784182 L34.357903,69.0784182 L6.22409473,69.0784182 C2.79316879,69.0784182 0.0130704507,66.2949088 0.0130704507,62.8594717 L0.0130704507,59.7937122 L21.1552656,55.7623389 L42.2974607,59.7937122 Z" id="Shape"></path>
                </g>
                <path d="M42.3105312,8.63480228 L42.3105312,59.5550088 C42.3010931,59.5706794 0.0520444639,59.5801357 0.0520444639,59.5801357 C0.0233256276,59.5801357 0,59.556765 0,59.5279905 L0,8.68694749 C0,8.65817306 0.0233256276,8.63480228 0.0520444639,8.63480228 C0.0520444639,8.63480228 42.3105312,8.63480228 42.3105312,8.63480228 Z" id="Shape" fill="#EAF4FF"></path>
                <circle id="Oval" fill="#333333" opacity="0.6" cx="20.7235255" cy="63.8975369" r="2.59044068"></circle>
                <polygon id="Shape" fill="#E1EFFF" points="42.3105312 32.9918857 42.3105312 59.5801357 6.0443616 59.5801357 37.0066548 8.86162045 37.0066548 8.63480228 42.3105312 8.63480228 42.3105312 25.4616305"></polygon>
            </g>
            <g id="Group" transform="translate(85.825741, 14.825741) rotate(12.000000) translate(-85.825741, -14.825741) translate(73.325741, 2.325741)" fill="#4BAAFC">
                <path d="M18.0833205,6.9085415 C13.6609942,2.47332994 7.65175726,-0.0135081467 1.38888583,5.51914008e-05 C0.621879011,5.51914008e-05 0,0.6219342 0,1.38894101 C0,2.15594783 0.621879011,2.77782684 1.38888583,2.77782684 C6.91594621,2.77104525 12.2192113,4.96423694 16.1274872,8.87251286 C20.0357631,12.7807888 22.2289548,18.0840538 22.2221732,23.6111142 C22.2221732,24.378121 22.8440522,25 23.6110591,25 C24.3780659,25 24.9999449,24.378121 24.9999449,23.6111142 C25.0135082,17.3441738 22.5232793,11.3308679 18.0833205,6.9085415 Z" id="Shape"></path>
                <path d="M1.35794668,8.71580123 C1.37054486,8.71779038 1.38314304,8.71779038 1.39574106,8.71580123 C9.63028204,8.72243169 16.2986755,15.4071748 16.2840882,23.6420994 C16.2840882,24.3919947 16.8921141,25 17.6420349,25 C18.3919555,25 18.9999816,24.3919947 18.9999816,23.6420994 C19.0139058,13.9073841 11.1294604,6.00663046 1.39441502,6 L1.35794668,6 C0.608025889,6 0,6.60800526 0,7.35790061 C0,8.10779597 0.608025889,8.71580123 1.35794668,8.71580123 Z" id="Shape"></path>
                <path d="M1.20122847,15.4023679 C3.43007036,15.3959163 5.56975858,16.2780257 7.14578445,17.8539752 C8.72181032,19.4305112 9.60454898,21.5700958 9.59751053,23.7988297 C9.59751053,24.4621714 10.1353652,25 10.798739,25 C11.4621128,25 11.9999675,24.4621714 11.9999675,23.7988297 C12.0070059,20.9325606 10.8714696,18.1818338 8.84439659,16.1554454 C6.81791004,14.129057 4.06704999,12.9935757 1.20122847,13.0000273 C0.537854703,13.0000273 0,13.537856 0,14.2011976 C0,14.8645393 0.537854703,15.4023679 1.20122847,15.4023679 Z" id="Shape"></path>
            </g>
            <g id="38888" transform="translate(26.350579, 47.276546) rotate(11.000000) translate(-26.350579, -47.276546) translate(13.350579, 35.776546)" fill="#B9DDFF">
                <path d="M22.6344766,0 L25.2013268,0 L25.2013268,20.5352397 L22.6344766,20.5352397 L22.6344766,0 Z M20.5597938,4.56107982 L20.5597938,20.5346861 L17.993493,20.5346861 L17.993493,4.56107982 L20.5597938,4.56107982 Z M16.0717885,9.30762565 L16.0717885,20.5352397 L13.5046637,20.5352397 L13.5046637,9.30762565 L16.0717885,9.30762565 Z M11.4299809,14.2385302 L11.4299809,20.5344093 L8.86340541,20.5344093 L8.86340541,14.2385302 L11.4299809,14.2385302 Z M6.52286436,16.7052282 L6.52286436,20.5346861 L3.95656353,20.5346861 L3.95656353,16.7052282 L6.52286436,16.7052282 Z M25.9997254,23 L0,23 L0,21.0805652 L26,21.0805652 L25.9997254,23 Z" id="Shape"></path>
            </g>
            <path d="M76.9002434,23.5314987 C76.7678243,23.3338362 76.5409909,23.218257 76.3056916,23.2244224 L71.6405623,23.3503081 C71.3211551,23.3589581 71.0489551,23.5846872 70.9815953,23.8970086 C70.9142354,24.2094221 71.0690158,24.5273569 71.3564914,24.6668617 L72.4465798,25.1959862 L59.5619852,34.3831512 L50.782292,26.4229108 C50.3462935,26.0275858 49.6821733,26.0251932 49.2434141,26.4172054 L41.8214083,33.0469049 C41.3475888,33.4701124 41.3066392,34.1972674 41.7298467,34.6709949 C42.1529623,35.1447223 42.8800253,35.185764 43.3539367,34.7625564 L50.0038809,28.8225592 L58.7029631,36.7096424 C58.9209624,36.9072129 59.1976715,37.0077005 59.4757609,37.0077005 C59.7087597,37.0077005 59.9426787,36.9371199 60.1433779,36.7940262 L73.7204355,27.1132572 L73.7849427,28.1323049 C73.8051874,28.4510678 74.0404868,28.7147099 74.3548327,28.7708431 C74.3956903,28.7781128 74.4366399,28.7817016 74.4770374,28.7817016 C74.747397,28.7817016 74.998064,28.6230563 75.1106065,28.3691686 L76.958125,24.1981035 C77.0545637,23.9806563 77.0327546,23.7290691 76.9002434,23.5314987 Z" id="Shape" fill="#B9DDFF" transform="translate(59.227522, 30.115944) rotate(-4.000000) translate(-59.227522, -30.115944) "></path>
        </g>
    </g>
</svg>