<?xml version="1.0" encoding="UTF-8"?>
<svg width="58px" height="71px" viewBox="0 0 58 71" version="1.1" xmlns="http://www.w3.org/2000/svg" xmlns:xlink="http://www.w3.org/1999/xlink">
    <!-- Generator: Sketch 50.2 (55047) - http://www.bohemiancoding.com/sketch -->
    <title>step</title>
    <desc>Created with Sketch.</desc>
    <defs>
        <linearGradient x1="68.5960655%" y1="104.545324%" x2="29.276477%" y2="-10.5300383%" id="linearGradient-1">
            <stop stop-color="#EBF2FF" stop-opacity="0" offset="0%"></stop>
            <stop stop-color="#C9D9FD" offset="100%"></stop>
        </linearGradient>
        <linearGradient x1="100.064809%" y1="50.1078749%" x2="0.064808814%" y2="50.1078749%" id="linearGradient-2">
            <stop stop-color="#ECB4A3" offset="0%"></stop>
            <stop stop-color="#E48798" offset="100%"></stop>
        </linearGradient>
        <linearGradient x1="50.0123609%" y1="100.017283%" x2="50.0123609%" y2="-0.00687680607%" id="linearGradient-3">
            <stop stop-color="#E48798" offset="0%"></stop>
            <stop stop-color="#ECB4A3" offset="100%"></stop>
        </linearGradient>
    </defs>
    <g id="Page-1" stroke="none" stroke-width="1" fill="none" fill-rule="evenodd">
        <g id="layout-a" transform="translate(-461.000000, -1383.000000)" fill-rule="nonzero">
            <g id="Group-4" transform="translate(137.000000, 1383.000000)">
                <g id="step" transform="translate(324.000000, 0.000000)">
                    <path d="M20.49,55.06 L47.26,70.54 L58.04,64.54 L30.3,48.35 C28.7605356,47.4291227 26.8394644,47.4291227 25.3,48.35 L20.45,51.23 C19.7798069,51.6393644 19.3743442,52.3710734 19.3825456,53.1563572 C19.390747,53.9416411 19.8114033,54.6647222 20.49,55.06 Z" id="Shape" fill="url(#linearGradient-1)"></path>
                    <g id="Group">
                        <path d="M30.17,48.64 L39.69,43.11 C37.13,44.59 33.6,44.39 29.69,42.11 C21.95,37.64 15.69,26.77 15.69,17.87 C15.69,13.45 17.27,10.34 19.79,8.87 L10.27,14.4 C7.75,15.87 6.18,18.98 6.17,23.4 C6.17,32.29 12.42,43.16 20.17,47.63 C24.08,49.92 27.61,50.13 30.17,48.64 Z" id="Shape" fill="#EFC5BB"></path>
                        <g transform="translate(6.000000, 8.000000)" fill="#EFC5BB" id="Shape">
                            <polyline points="24.17 40.64 33.69 35.11 33.61 35.11 24.09 40.65 24.17 40.65"></polyline>
                            <path d="M24.09,40.69 L33.61,35.15 C33.3815071,35.2825632 33.1442975,35.3994975 32.9,35.5 L23.38,41 C23.6241059,40.9029052 23.8613207,40.7893094 24.09,40.66"></path>
                            <path d="M23.38,41 L32.9,35.5 C32.659395,35.6030401 32.4121785,35.6899 32.16,35.76 L22.64,41.3 C22.89,41.22 23.14,41.13 23.38,41.03"></path>
                            <path d="M22.64,41.3 L32.16,35.76 C31.9016252,35.839995 31.6375262,35.9001695 31.37,35.94 L21.85,41.48 C22.12,41.48 22.38,41.37 22.64,41.3"></path>
                            <path d="M21.85,41.48 L31.37,35.94 C31.0886846,35.9886873 30.8049339,36.0220697 30.52,36.04 L21,41.58 C21.2849339,41.5620697 21.5686846,41.5286873 21.85,41.48"></path>
                            <path d="M21,41.58 L30.52,36 C30.22,36 29.91,36 29.59,36 L20.07,41.53 C20.379677,41.5500139 20.690323,41.5500139 21,41.53"></path>
                            <path d="M20.07,41.58 L29.59,36.05 C29.238456,36.035578 28.8879464,36.0021962 28.54,35.95 L19,41.48 C19.3479464,41.5321962 19.698456,41.565578 20.05,41.58"></path>
                            <path d="M19,41.48 L28.54,36 C28.1255114,35.9318271 27.7149338,35.8417003 27.31,35.73 L17.79,41.27 C18.1950754,41.3785169 18.6056609,41.4653074 19.02,41.53"></path>
                            <path d="M17.79,41.22 L27.31,35.68 C26.7464196,35.5318588 26.1948474,35.3413156 25.66,35.11 L16.14,40.65 C16.6782312,40.8724963 17.2292011,41.0628314 17.79,41.22"></path>
                            <path d="M16.14,40.65 L25.66,35.11 C24.9720127,34.8211313 24.3038874,34.4870686 23.66,34.11 C21.9622548,33.1135021 20.3966272,31.9073641 19,30.52 L9.5,36.05 C10.900835,37.4494985 12.4733592,38.6658527 14.18,39.67 C14.8239982,40.0468641 15.4921098,40.3809199 16.18,40.67"></path>
                            <path d="M9.5,36.05 L19,30.52 C18.47,30 18,29.45 17.46,28.88 L8,34.42 C8.5,34.98 9,35.53 9.53,36.05"></path>
                            <path d="M8,34.42 L17.52,28.88 C17.13,28.43 16.75,27.97 16.38,27.49 L6.83,33 C7.2,33.47 7.58,33.94 7.97,34.39"></path>
                            <path d="M6.83,33 L16.35,27.46 C16.03,27.05 15.72,26.63 15.41,26.19 L5.89,31.73 C6.2,32.16 6.51,32.58 6.83,33"></path>
                            <path d="M5.89,31.76 L15.41,26.22 C15.14,25.82 14.86,25.42 14.6,25.01 L5.08,30.54 C5.34,30.95 5.61,31.36 5.89,31.76"></path>
                            <path d="M5.08,30.54 L14.6,25 C14.35,24.61 14.11,24.21 13.87,23.81 L4.35,29.34 C4.59,29.74 4.83,30.14 5.08,30.53"></path>
                            <path d="M4.35,29.35 L13.87,23.82 C13.64,23.43 13.42,23.03 13.21,22.63 L3.69,28.16 C3.9,28.56 4.12,28.96 4.35,29.35"></path>
                            <path d="M3.69,28.16 L13.21,22.63 C12.9966667,22.2366667 12.7966667,21.8366667 12.61,21.43 L3.08,27 C3.28,27.4 3.48,27.8 3.69,28.19"></path>
                            <path d="M3.08,27 L12.61,21.46 C12.41,21.06 12.22,20.65 12.05,20.24 L2.53,25.75 C2.7,26.16 2.89,26.56 3.08,26.97"></path>
                            <path d="M2.53,25.75 L12.05,20.21 C11.87,19.8 11.69,19.37 11.53,18.95 L2,24.49 C2.16,24.91 2.33,25.33 2.52,25.75"></path>
                            <path d="M2,24.49 L11.53,19 C11.36,18.56 11.2,18.12 11.06,17.68 L1.53,23.16 C1.68,23.6 1.84,24.04 2.01,24.49"></path>
                            <path d="M1.53,23.16 L11.06,17.63 C10.9,17.15 10.75,16.63 10.62,16.19 L1.1,21.73 C1.23,22.2 1.37,22.73 1.53,23.16"></path>
                            <path d="M1.1,21.73 L10.62,16.19 C10.47,15.66 10.34,15.12 10.22,14.58 L0.7,20.12 C0.82,20.65 0.95,21.19 1.1,21.73"></path>
                            <path d="M0.7,20.12 L10.22,14.58 C10.09,13.93 9.97,13.28 9.89,12.64 L0.37,18.18 C0.45,18.82 0.56,19.47 0.7,20.12"></path>
                            <path d="M0.37,18.18 L9.89,12.64 C9.77096317,11.7315052 9.71083755,10.8162597 9.71,9.9 C9.71,5.48 11.29,2.37 13.81,0.9 L4.29,6.43 C1.77,7.9 0.2,11.01 0.19,15.43 C0.191500643,16.3462376 0.251623459,17.2614404 0.37,18.17"></path>
                        </g>
                        <g transform="translate(34.000000, 37.000000)" id="Shape">
                            <path d="M0.54,19.18 L10.07,13.64 C13.7,11.53 15.95,7.05 15.97,0.64 L6.45,6.18 C6.43,12.58 4.18,17.07 0.54,19.18 Z" fill="#EFC5BB"></path>
                            <path d="M0.54,19.18 L10.07,13.64 C13.7,11.53 15.95,7.05 15.97,0.64 L6.45,6.18 C6.45,12.54 4.18,17.03 0.54,19.18" fill="url(#linearGradient-2)"></path>
                        </g>
                        <polygon id="Shape" fill="#ECB4A3" points="40.45 43.22 49.97 37.69 43.79 34.11 34.27 39.65"></polygon>
                        <path d="M20.29,8.3 C9.14,1.86 0,7.05 0,19.86 C0,32.67 9,48.34 20.16,54.78 C31.32,61.22 40.41,56 40.45,43.22 L34.27,39.65 C34.27,48.54 27.92,52.14 20.18,47.65 C12.44,43.16 6.18,32.31 6.18,23.42 C6.18,14.53 12.52,10.92 20.26,15.42 L20.29,8.3 Z" id="Shape" fill="url(#linearGradient-3)"></path>
                        <path d="M15.43,1.37 L5.91,6.9 C9.59,4.76 14.68,5.06 20.29,8.3 L29.82,2.77 C24.2,-0.47 19.11,-0.77 15.43,1.37 Z" id="Shape" fill="#ECB4A3"></path>
                        <g transform="translate(5.000000, 0.000000)" fill="#ECB4A3" id="Shape">
                            <path d="M15.29,8.3 L24.82,2.77 C23.9109737,2.24044873 22.9690568,1.76949031 22,1.36 L12.47,6.9 C13.4407967,7.30187738 14.382992,7.76963396 15.29,8.3"></path>
                            <path d="M12.47,6.9 L22,1.36 C21.2237776,1.0393208 20.4290167,0.765495636 19.62,0.54 L10.1,6.08 C10.9075841,6.29958684 11.6993912,6.5735454 12.47,6.9"></path>
                            <path d="M10.1,6.08 L19.62,0.54 C19.0335516,0.382993119 18.4394382,0.256159938 17.84,0.16 L8.32,5.7 C8.92032732,5.79134726 9.51470526,5.91823694 10.1,6.08"></path>
                            <path d="M8.32,5.7 L17.84,0.16 C17.33,0.09 16.84,0.03 16.33,0.01 L6.81,5.55 C7.31577781,5.57122254 7.81993147,5.62130403 8.32,5.7"></path>
                            <path d="M6.81,5.55 L16.33,0 C15.88,0 15.43,0 14.99,0 L5.47,5.54 C5.9163145,5.51491603 6.3636855,5.51491603 6.81,5.54"></path>
                            <path d="M5.47,5.56 L15,0 C14.5910379,0.0291256059 14.1838371,0.0791912693 13.78,0.15 L4.25,5.7 C4.65321359,5.6270156 5.06073502,5.58025084 5.47,5.56"></path>
                            <path d="M4.25,5.7 L13.77,0.17 C13.3845298,0.230642711 13.0036456,0.317511042 12.63,0.43 L3.11,6 C3.48,5.9 3.86,5.81 4.25,5.74"></path>
                            <path d="M3.11,6 L12.63,0.47 C12.2662122,0.575642724 11.9089323,0.702527174 11.56,0.85 L2,6.34 C2.36388502,6.2075883 2.73438081,6.0941031 3.11,6"></path>
                            <path d="M2,6.34 L11.52,0.81 C11.1754141,0.95314184 10.841265,1.1202164 10.52,1.31 L1,6.84 C1.32336896,6.6541078 1.65726487,6.48715985 2,6.34"></path>
                            <polyline points="1 6.84 10.52 1.31 10.41 1.37 0.91 6.9 1 6.84"></polyline>
                        </g>
                        <polygon id="Shape" fill="#EFC5BB" points="20.27 15.41 29.8 9.88 29.82 2.77 20.29 8.3"></polygon>
                    </g>
                </g>
            </g>
        </g>
    </g>
</svg>