<?xml version="1.0" encoding="UTF-8"?>
<svg width="71px" height="82px" viewBox="0 0 71 82" version="1.1" xmlns="http://www.w3.org/2000/svg" xmlns:xlink="http://www.w3.org/1999/xlink">
    <!-- Generator: Sketch 50.2 (55047) - http://www.bohemiancoding.com/sketch -->
    <title>Group</title>
    <desc>Created with Sketch.</desc>
    <defs>
        <polygon id="path-1" points="0 0.0764255044 14.3256 0.0764255044 14.3256 11.7114305 0 11.7114305"></polygon>
        <path d="M2.47727273,0.221491667 C-1.99429293,0.542791667 1.88116162,12.4025417 1.88116162,12.4025417 C17.9776263,16.8897167 15.5931818,10.1581667 12.9099495,8.55481667 C10.2281818,6.95304167 17.0841919,-0.739258333 10.5255051,2.46744167 C6.61929293,4.37634167 6.09641414,3.10059167 5.36848485,1.82484167 C4.90565657,1.01686667 4.36227273,0.208891667 2.82146465,0.208891667 C2.71161616,0.208891667 2.59737374,0.213616667 2.47727273,0.221491667" id="path-3"></path>
    </defs>
    <g id="Page-1" stroke="none" stroke-width="1" fill="none" fill-rule="evenodd">
        <g id="Group">
            <g id="Group-12" transform="translate(0.000000, 7.000000)">
                <path d="M16.4628,65.9238 C16.4628,65.9238 28.6743,58.2918 29.5893,65.9238 C30.5043,73.5558 16.4628,65.9238 16.4628,65.9238" id="Fill-1" fill="#003CA6"></path>
                <g id="Group-5" transform="translate(0.000000, 55.127820)">
                    <mask id="mask-2" fill="white">
                        <use xlink:href="#path-1"></use>
                    </mask>
                    <g id="Clip-4"></g>
                    <path d="M14.3256,11.7114305 C14.3256,11.7114305 -5.5179,7.13193045 1.5036,1.33143045 C8.5251,-4.46756955 14.3256,11.7114305 14.3256,11.7114305" id="Fill-3" fill="#003CA6" mask="url(#mask-2)"></path>
                </g>
                <path d="M42.411,23.184 C42.411,23.184 52.485,17.9955 51.876,23.7945 C51.264,29.595 42.411,23.184 42.411,23.184" id="Fill-6" fill="#003CA6"></path>
                <path d="M38.44275,22.87935 C38.44275,22.87935 38.44275,10.05735 32.03175,13.10985 C25.62075,16.16235 38.44275,22.87935 38.44275,22.87935" id="Fill-8" fill="#003CA6"></path>
                <path d="M15.8901,75 L14.0586,74.8485 C14.1006,74.349 18.7266,24.7005 67.9521,0.3795 L68.7666,2.028 C20.4966,25.875 15.9306,74.5125 15.8901,75" id="Fill-10" fill="#003CA6"></path>
            </g>
            <g id="Group-15" transform="translate(56.000000, 0.000000)">
                <mask id="mask-4" fill="white">
                    <use xlink:href="#path-3"></use>
                </mask>
                <g id="Clip-14"></g>
                <path d="M2.47727273,0.221491667 C-1.99429293,0.542791667 1.88116162,12.4025417 1.88116162,12.4025417 C17.9776263,16.8897167 15.5931818,10.1581667 12.9099495,8.55481667 C10.2281818,6.95304167 17.0841919,-0.739258333 10.5255051,2.46744167 C6.61929293,4.37634167 6.09641414,3.10059167 5.36848485,1.82484167 C4.90565657,1.01686667 4.36227273,0.208891667 2.82146465,0.208891667 C2.71161616,0.208891667 2.59737374,0.213616667 2.47727273,0.221491667" id="Fill-13" fill="#ECB4A3" mask="url(#mask-4)"></path>
            </g>
        </g>
    </g>
</svg>