<?xml version="1.0" encoding="UTF-8"?>
<svg width="58px" height="46px" viewBox="0 0 58 46" version="1.1" xmlns="http://www.w3.org/2000/svg" xmlns:xlink="http://www.w3.org/1999/xlink">
    <!-- Generator: Sketch 50.2 (55047) - http://www.bohemiancoding.com/sketch -->
    <title>資產 2</title>
    <desc>Created with Sketch.</desc>
    <defs>
        <linearGradient x1="0%" y1="50.3257329%" x2="99.9999012%" y2="50.3257329%" id="linearGradient-1">
            <stop stop-color="#ECB4A3" offset="0%"></stop>
            <stop stop-color="#E48798" offset="100%"></stop>
        </linearGradient>
        <linearGradient x1="0%" y1="49.8611662%" x2="99.9996266%" y2="49.8611662%" id="linearGradient-2">
            <stop stop-color="#8AD4C7" offset="0%"></stop>
            <stop stop-color="#65B1C1" offset="100%"></stop>
        </linearGradient>
    </defs>
    <g id="Page-1" stroke="none" stroke-width="1" fill="none" fill-rule="evenodd">
        <g id="資產-2" fill-rule="nonzero">
            <path d="M57.9999427,29.218241 L57.9999427,28.7986971 L57.9999427,27.7648208 L57.9999427,24.9928339 L57.9999427,23.9140065 L57.9999427,23.5543974 L57.9999427,23.4495114 L57.9999427,16.9765472 C57.9999427,12.6162866 55.1846977,8.25602606 49.5099892,4.98957655 C38.1900512,-1.66319218 19.824631,-1.66319218 8.4899535,4.98957655 C2.8299845,8.25602606 0,12.6162866 0,16.9765472 L0,18.2201954 L0,18.6996743 L0,19.1791531 L0,19.2840391 L0,19.8234528 L0,20.123127 L0,20.1980456 L0,20.2729642 L0,20.5726384 L0,20.647557 L0,20.9172638 L0,21.2169381 L0,21.2918567 L0,21.3667752 L0,21.6664495 L0,21.7413681 L0,21.8162866 L0,22.1159609 L0,22.4156352 L0,22.7153094 L0,23.1648208 L0,23.2996743 L0,23.4045603 L0,23.6143322 L0,23.9140065 L0,24.0188925 L0,24.2586319 L0,24.3635179 L0,24.6032573 L0,24.828013 L0,24.9029316 L0,25.0677524 L0,25.4123779 L0,25.5472313 L0,25.6820847 L0,25.8618893 L0,26.0267101 L0,26.1016287 L0,26.3413681 L0,26.4462541 L0,26.9257329 L0,27.3752443 L0,27.6599349 L0,27.9895765 L0,28.3491857 L0,28.4241042 L0,28.8436482 L0,28.9485342 L0,29.0234528 C0,33.3837134 2.8299845,37.7439739 8.4899535,41.0104235 C19.824631,47.6631922 38.1900512,47.6631922 49.5099892,41.0104235 C55.1846977,37.6840391 58.0146822,33.3237785 57.9999427,29.0234528 L57.9999427,28.9185668 L57.9999427,29.218241 Z" id="Shape" fill="url(#linearGradient-1)"></path>
            <path d="M8.24165342,5.4 C2.74721781,8.68888889 0,13 0,17.3111111 L0,18.5407407 L0,19.0148148 L0,19.4888889 L0,19.5925926 L0,20.1259259 L0,20.4222222 L0,20.4962963 L0,20.5703704 L0,20.8666667 L0,20.9407407 L0,21.2074074 L0,21.5037037 L0,21.5777778 L0,21.6518519 L0,21.9481481 L0,22.0222222 L0,22.0962963 L0,22.3925926 L0,22.6888889 L0,22.9259259 L0,23.3703704 L0,23.5037037 L0,23.6074074 L0,23.8148148 L0,24.1703704 L0,24.2740741 L0,24.5111111 L0,24.6148148 L0,25.0888889 L0,25.162963 L0,25.3259259 L0,25.6518519 L0,25.7851852 L0,25.9185185 L0,26.0962963 L0,26.2296296 L0,26.3333333 L0,26.5703704 L0,26.6740741 L0,27.1481481 L0,27.5925926 L0,27.8740741 L0,28.2 L0,28.5555556 L0,28.6296296 L0,28.9851852 L0,29.0888889 L0,29.162963 C0,32.6148148 1.77424483,36.0814815 5.30842607,39 L5.42289348,39 L5.42289348,27.2222222 L9,5 C8.75675676,5.13333333 8.48489666,5.25185185 8.24165342,5.4 Z" id="Shape" fill="#F9DFB0"></path>
            <path d="M49.2198583,41.9397065 C55.0936414,38.5934153 58.0152366,34.2070607 57.9999402,29.8809996 L57.9999402,29.7754859 L57.9999402,29.3534312 L57.9999402,28.3133677 L57.9999402,25.4795716 L57.9999402,24.394288 L57.9999402,24.0325268 L57.9999402,23.9270131 L57.9999402,17.4153114 C57.9999402,13.0289568 55.078345,8.64260214 49.1892657,5.35660452 C48.3158978,4.85954538 47.4173445,4.4067544 46.4971151,4 L42,4.93454978 L49.2198583,29.5493852 L49.2198583,42 L49.2198583,41.9397065 Z" id="Shape" fill="url(#linearGradient-2)"></path>
            <path d="M9.28577732,5 C9.03492269,5.15323118 8.75455575,5.27581612 8.50370112,5.4290473 C-1.75182639,11.5582945 -2.7257326,21.1965356 5.55247018,28 L29,17.733511 L9.28577732,5 Z" id="Shape" fill="#EFC398"></path>
            <path d="M50,29.0035305 L29.4322148,17 L6,27.0079435 C6.93532667,27.7451574 7.92228088,28.4121196 8.95302013,29.0035305 C20.2630872,35.6654898 38.6604027,35.6654898 50,29.0035305 Z" id="Shape" fill="#E48798"></path>
            <path d="M51.3400124,6.17655994 C50.7472226,5.77194215 50.1247933,5.36732437 49.4579048,4.97769243 C38.328276,-1.51117792 20.4260237,-1.66103636 9,4.55808881 L28.843639,17.011325 L49.4875442,29 C60.1874004,22.765889 60.7950099,12.8602463 51.3400124,6.17655994 Z" id="Shape" fill="#65B1C1"></path>
        </g>
    </g>
</svg>