<?xml version="1.0" encoding="UTF-8" standalone="no"?>
<svg width="111px" height="19px" viewBox="0 0 111 19" version="1.1" xmlns="http://www.w3.org/2000/svg" xmlns:xlink="http://www.w3.org/1999/xlink">
    <!-- Generator: Sketch 42 (36781) - http://www.bohemiancoding.com/sketch -->
    <title>Page 1</title>
    <desc>Created with Sketch.</desc>
    <defs>
        <polygon id="path-1" points="0 18.6107 110.42 18.6107 110.42 -0.0003 0 -0.0003"></polygon>
    </defs>
    <g id="Page-1" stroke="none" stroke-width="1" fill="none" fill-rule="evenodd">
        <g>
            <path d="M56.8378,2.0486 L58.6748,2.0486 L58.9698,2.1826 L58.9698,2.3126 L58.9048,2.4776 L58.9048,13.6356 L62.4868,13.6356 L62.4868,4.6846 C62.4448,4.7956 62.4338,4.6756 62.4558,4.3266 L62.4558,4.1466 L62.5058,4.0796 C63.2208,4.0376 63.9218,4.0796 64.6038,4.2106 L64.5708,5.9286 L64.5708,15.3556 C64.5948,15.2226 64.6038,15.3436 64.6038,15.7146 L64.6038,16.2866 L64.5548,16.3536 L62.5398,16.3536 C62.4838,16.3976 62.4678,16.2556 62.4868,15.9286 L62.4558,15.6156 L53.2518,15.6156 C53.2088,15.5276 53.1978,15.6416 53.2198,15.9606 C53.2418,16.4506 53.2198,16.6396 53.1518,16.5306 L51.1878,16.5306 L51.1218,16.4826 L51.1218,4.1786 L51.1878,4.1126 C51.5278,4.0696 52.2168,4.1036 53.2518,4.2106 L53.3198,4.2626 L53.3198,4.3596 L53.2198,4.7186 L53.2198,13.6356 L56.8048,13.6356 L56.8048,2.3786 C56.7598,2.4866 56.7508,2.7146 56.7718,2.3766 L56.7718,2.1156 L56.8378,2.0486 Z" id="Fill-1" fill="#FEFEFE"></path>
            <mask id="mask-2" fill="white">
                <use xlink:href="#path-1"></use>
            </mask>
            <g id="Clip-4"></g>
            <path d="M74.943,14.3767 L76.267,14.3767 L76.267,12.9047 L74.943,12.9047 L74.943,14.3767 Z M73.241,11.2677 L73.241,16.7317 L73.293,16.7987 L74.878,16.7987 L74.913,16.7667 C74.934,16.8307 74.943,16.7177 74.943,16.4217 C74.921,16.1047 74.934,15.9867 74.978,16.0617 L76.235,16.0617 L76.267,16.1937 C76.244,16.5197 76.266,16.6617 76.332,16.6197 L77.919,16.6197 L77.984,16.5547 L77.984,11.2677 L77.919,11.2207 L73.293,11.2207 L73.241,11.2677 Z M73.241,9.0757 L73.241,10.6277 L73.293,10.6937 L77.819,10.6937 L77.888,10.6277 L77.888,9.0757 L77.819,9.0107 L73.293,9.0107 L73.241,9.0757 Z M73.177,2.2037 L73.177,3.8897 L73.241,3.9537 L77.756,3.9537 L77.819,3.8897 L77.819,2.2037 L77.756,2.1367 L73.241,2.1367 L73.177,2.2037 Z M83.401,14.6867 L82.115,14.6867 L82.081,14.6717 L81.686,13.2317 L83.718,13.2317 C83.62,14.0167 83.515,14.5007 83.401,14.6867 L83.401,14.6867 Z M80.795,11.6597 L84.726,11.6597 L84.726,10.5147 L80.795,10.5147 L80.795,11.6597 Z M86.212,8.9427 L79.176,8.9427 L80.365,7.7337 L80.396,7.9797 C80.377,8.3077 80.396,8.4487 80.464,8.4047 L84.596,8.4047 L84.66,8.3407 L84.66,7.4727 L84.692,7.4067 L86.212,8.9427 Z M82.081,2.1367 L78.565,2.1367 L78.498,2.2037 L78.498,3.7887 L78.565,3.8547 L80.795,3.8547 L80.795,3.8897 L80.267,4.7877 L80.233,4.7877 L79.455,4.2147 L79.306,4.2147 L78.396,5.0167 L78.367,4.8857 C78.388,4.5927 78.367,4.4607 78.3,4.4917 L72.748,4.4917 L72.682,4.5587 L72.682,6.1947 L72.748,6.2607 L78.3,6.2607 L78.333,6.2287 C78.352,6.3597 78.374,6.1787 78.396,5.6887 L78.432,5.6887 L78.975,6.3267 L78.975,6.3597 L78.879,6.4567 C78.493,6.7957 78.184,7.0357 77.953,7.1767 L77.919,7.1767 L77.888,7.1597 C77.908,6.8777 77.888,6.7577 77.819,6.8007 L73.293,6.8007 L73.241,6.8657 L73.241,8.4047 L73.293,8.4707 L77.819,8.4707 C77.864,8.4917 77.897,8.3807 77.919,8.1417 L77.953,8.1767 C78.359,9.0507 78.623,9.4417 78.745,9.3517 L78.745,13.1667 L78.778,13.1997 C78.656,13.2217 78.823,13.2317 79.276,13.2317 L79.588,13.2647 L79.951,14.6057 L79.951,14.6867 L78.432,14.6867 L78.367,14.7527 L78.367,16.5197 L78.432,16.5837 L78.63,16.5837 L79.276,16.4867 L87.469,16.4867 L87.536,16.4217 L87.536,14.6717 L87.469,14.6057 C86.796,14.6827 86.121,14.7097 85.437,14.6867 L85.437,14.6387 L85.817,13.2977 C85.696,13.2317 85.866,13.2107 86.33,13.2317 C86.659,13.2537 86.803,13.2317 86.757,13.1667 L86.757,9.4207 C86.803,9.3977 86.837,9.3327 86.856,9.2217 C87.243,8.4807 87.619,7.8957 87.983,7.4727 L87.983,7.4067 L87.916,7.3387 L86.692,6.4247 L87.916,5.1307 L87.916,5.0167 C87.596,4.5467 87.266,4.1947 86.925,3.9537 L86.726,3.9537 C86.142,4.6217 85.734,5.0227 85.503,5.1637 L85.14,4.7227 L85.14,4.6577 L85.403,4.4117 C85.987,3.7677 86.297,3.4567 86.33,3.4787 L86.33,3.4137 C86.031,2.9457 85.635,2.5637 85.14,2.2697 L84.939,2.2697 C84.557,2.7587 84.301,3.0317 84.182,3.0857 L84.147,3.0697 L83.815,2.3337 C83.707,1.9837 83.629,1.8117 83.587,1.8117 L83.339,1.8117 L82.081,2.1367 Z M82.793,4.7557 C83.519,5.9467 83.905,6.5267 83.95,6.5067 L83.95,6.5707 L81.374,6.5707 L81.374,6.5067 L81.405,6.4887 C81.835,5.8667 82.165,5.3347 82.396,4.8857 C82.526,4.5927 82.617,4.4607 82.66,4.4917 L82.793,4.7557 Z" id="Fill-3" fill="#FEFEFE" mask="url(#mask-2)"></path>
            <path d="M104.1913,9.1814 L104.9983,10.3774 L104.9983,10.4914 L100.4893,10.4914 L100.4893,10.4104 L101.3783,9.1814 L104.1913,9.1814 Z M101.4123,1.5564 C101.2703,2.8774 101.1073,3.7604 100.9323,4.2064 L99.1663,4.2064 L99.1663,4.1084 C99.5953,3.5324 99.8923,3.0394 100.0573,2.6354 L100.0573,2.4724 L100.0233,2.4404 L98.8703,1.9974 C98.5913,1.9534 98.4823,1.9114 98.5383,1.8664 L98.1903,1.8664 L97.8923,2.3094 C97.2333,3.4004 96.3493,4.2794 95.2503,4.9454 L95.2503,5.1554 L96.8343,6.3164 L97.0333,6.3164 L97.0993,6.2834 C97.6053,5.8704 97.9813,5.5404 98.2213,5.2874 L98.2553,5.2874 C98.2793,5.1334 98.2893,5.3154 98.2893,5.8264 C98.2673,6.1554 98.2893,6.2964 98.3573,6.2534 L100.4213,6.2184 L100.4213,6.3514 C100.2003,6.8724 100.0573,7.1474 99.9903,7.1684 L97.1153,7.1684 L95.4813,7.1364 L95.4133,7.2014 L95.4133,9.1814 L95.4813,9.2454 L95.5463,9.2454 L96.0893,9.1814 L98.4893,9.1814 L98.4893,9.2454 C97.5923,10.2494 96.4943,10.9434 95.1823,11.3244 L95.1823,11.5214 C95.5893,12.1444 95.9493,12.7494 96.2553,13.3364 L96.5023,13.3364 C97.3503,12.9344 98.1503,12.4454 98.9003,11.8664 L98.9343,12.0924 C98.9113,12.4084 98.9343,12.5464 99.0003,12.5034 L99.9903,12.5034 L100.3223,12.5364 L100.3223,12.6324 L100.2873,12.6994 L99.8433,13.3684 C98.8533,14.3074 97.7593,14.8124 96.5723,14.8764 C96.2293,14.8334 96.0893,14.8664 96.1593,14.9734 L96.1593,15.1034 L96.3883,15.4144 L96.9673,16.5454 C97.1123,16.9494 97.2163,17.1274 97.2803,17.0844 L97.6113,17.0844 C98.4703,16.9114 99.1473,16.6864 99.6443,16.4134 C101.2763,15.7474 102.3363,14.4464 102.8343,12.5034 L104.8333,12.5034 L104.8333,12.9284 C104.7883,14.0294 104.4353,14.5714 103.7783,14.5484 L102.5523,14.5334 L102.4843,14.5794 L102.4843,14.7114 C102.8063,15.2474 103.0323,15.7274 103.1643,16.1544 C103.2523,16.7734 103.3673,17.0514 103.5103,16.9874 L104.2863,16.9534 C105.3243,16.8014 106.1303,16.2684 106.7183,15.3504 C107.0133,14.4564 107.1413,13.5184 107.0943,12.5364 C107.0743,12.2194 107.0863,12.1034 107.1303,12.1904 L107.1623,12.1904 L107.3603,12.3234 C108.2433,12.7494 108.8633,12.9934 109.2263,13.0584 L109.5103,13.0584 L109.5763,12.9604 C110.0713,11.6194 110.3543,10.9584 110.4203,10.9804 L110.4203,10.8824 L110.3843,10.8504 C108.8633,10.5554 107.7243,10.0314 106.9633,9.2794 L106.9633,9.1814 L110.1033,9.1814 L110.1713,9.1174 L110.1713,7.1364 L110.1033,7.0714 L109.9703,7.0714 L109.0623,7.1684 L105.6753,7.1684 L105.3303,6.3164 L105.3303,6.2184 L106.9633,6.2534 L106.9993,6.2184 C107.0213,6.3204 107.0303,6.1554 107.0303,5.7294 C107.0083,5.4124 107.0213,5.2994 107.0633,5.3854 L107.0943,5.3854 L107.1953,5.4834 C107.7353,5.9104 108.0993,6.1674 108.2883,6.2534 L108.5183,6.2534 L108.7163,6.0564 L110.0713,4.8474 L110.0713,4.7454 C109.4653,4.4514 108.9803,4.1524 108.6163,3.8464 C107.4053,2.7884 106.7593,2.1524 106.6833,1.9334 L106.4523,1.9334 C105.6143,2.2494 105.1523,2.4744 105.0653,2.6054 L105.0653,2.7664 C105.4723,3.5504 105.7413,3.9894 105.8743,4.0764 L105.8743,4.1404 L105.5773,4.2064 L103.2963,4.2064 L103.4783,3.3394 C103.5233,2.6304 103.6563,2.0944 103.8743,1.7354 L103.8083,1.6684 C102.9943,1.5514 102.2063,1.5014 101.4473,1.5254 L101.4123,1.5564 Z M103.1643,6.2184 L103.3803,7.1684 L102.3533,7.1684 L102.7023,6.2184 L103.1643,6.2184 Z" id="Fill-5" fill="#FEFEFE" mask="url(#mask-2)"></path>
            <path d="M41.5751,2.3679 L42.0511,2.3679 L42.1171,2.4329 L42.1171,4.3799 L42.0511,4.4439 C42.0311,4.3799 40.9231,4.3579 38.7301,4.3799 L36.0521,4.3799 L36.0521,7.7999 L40.3471,7.7999 L41.0251,7.7349 L41.1591,7.7349 L41.2251,7.7999 L41.2251,9.6989 L41.1591,9.7449 L36.0521,9.7449 L36.0521,14.2309 L42.1831,14.2309 C42.4681,14.1629 42.7401,14.1439 42.9911,14.1629 L43.0601,14.2309 L43.0601,16.1419 L42.9911,16.2099 L40.9271,16.1769 L28.7321,16.1769 L27.9871,16.2439 L27.7901,16.2439 L27.7261,16.1769 L27.7261,14.2309 L27.7901,14.1629 C27.8131,14.2309 28.8731,14.2519 30.9651,14.2309 L33.7891,14.2309 L33.7891,9.7449 L30.0861,9.7449 C29.8241,9.8109 29.5641,9.8339 29.3111,9.8109 L29.2441,9.7449 L29.2441,7.7999 L29.3111,7.7349 C29.3331,7.7999 30.3021,7.8209 32.2211,7.7999 L33.7891,7.7999 L33.7891,4.3799 L29.3451,4.3799 L28.6021,4.4439 L28.4351,4.4439 L28.3691,4.3799 L28.3691,2.4639 L28.4351,2.3989 L30.6331,2.4329 L41.1271,2.4329 C41.5361,2.4099 41.6841,2.3889 41.5751,2.3679" id="Fill-6" fill="#FEFEFE" mask="url(#mask-2)"></path>
            <path d="M40.8369,11.2302 C41.0249,11.5222 41.0909,11.9202 41.0049,12.2942 C40.8989,12.6942 40.5169,13.1112 40.1199,13.2122 C39.5719,13.3832 39.0429,13.1942 38.6629,12.7972 C38.4309,12.5252 38.3459,12.1902 38.3659,11.8142 C38.4089,11.3142 38.8109,10.8102 39.2979,10.6852 C39.8639,10.5182 40.4989,10.7082 40.8369,11.2302" id="Fill-7" fill="#FEFEFE" mask="url(#mask-2)"></path>
            <path d="M18.1981,5.8913 C19.6011,9.4583 18.6071,13.6673 15.7601,16.1813 C13.3051,18.4043 9.6611,19.2213 6.4051,18.1303 C2.7621,16.9223 0.2081,13.6263 0.0131,9.7693 C-0.1809,6.1243 1.7281,2.8303 4.9241,1.0963 C7.8471,-0.5807 12.2341,-0.3037 14.9021,1.7203 C16.3651,2.7143 17.5361,4.2753 18.1981,5.8913" id="Fill-8" fill="#FEFEFE" mask="url(#mask-2)"></path>
            <path d="M8.9589,4.3318 C9.2899,4.2358 9.7189,3.9818 10.0509,4.2358 C10.2859,4.5828 10.9269,4.7038 10.7529,5.1888 C11.0839,5.5988 11.4539,6.0658 11.8819,6.3788 C11.9799,6.3988 12.0189,6.3398 12.0579,6.2818 L11.9419,6.2198 C12.0779,6.1048 12.4079,6.3008 12.6239,6.1838 C12.7609,6.1838 12.9559,6.2198 13.0529,6.3588 C13.1479,6.5158 13.1689,6.7078 13.3059,6.8658 L13.3829,6.8258 C13.4819,7.0008 13.5209,7.1558 13.6369,7.3138 C14.3379,7.5468 14.6699,8.3848 15.2929,8.7368 C16.0549,9.3018 16.8519,9.8658 17.7489,10.1978 C17.7109,10.3148 17.8459,10.3148 17.9039,10.3538 L17.9039,10.3748 C17.7889,10.3148 17.6319,10.2578 17.5149,10.2938 C17.6319,10.4708 17.9259,10.3938 17.9839,10.5878 L17.6719,10.5878 C17.6719,10.6458 17.7489,10.6458 17.7889,10.6658 C17.6319,10.6068 17.4759,10.7248 17.3789,10.5278 C16.7349,10.2578 16.1499,9.8658 15.5849,9.5178 L15.5669,9.5348 C16.0149,9.9658 16.6389,10.2748 17.1469,10.5698 C17.3199,10.6658 17.5709,10.7248 17.6719,10.8978 C17.6119,10.9198 17.5149,10.9198 17.4969,10.9978 L17.3599,10.9198 C17.3199,10.9398 17.3599,10.9778 17.3399,10.9978 L17.4369,11.0768 C16.7739,10.7998 16.0339,10.3938 15.4309,9.9058 C15.1369,9.7108 14.8449,9.5548 14.5539,9.3428 C14.5149,9.3428 14.4559,9.3228 14.4349,9.3818 C14.7679,9.6318 15.1169,9.7908 15.4509,10.0208 C14.8449,9.7328 14.1239,9.3018 13.6369,8.7178 C13.4219,8.5038 13.1109,8.0538 12.7409,8.1338 C12.6049,8.2128 12.3899,8.1908 12.2339,8.2698 C12.1159,8.2698 12.0189,8.1338 11.9029,8.2318 C11.8059,8.4438 11.4939,8.2698 11.4339,8.5038 C11.2399,8.5798 10.8889,8.5208 10.8309,8.7558 L10.8499,8.8558 C10.4599,9.0298 9.9329,8.9718 9.6609,9.3428 C9.5839,9.4178 9.4269,9.3228 9.3499,9.4178 C9.3679,9.3818 9.3289,9.3428 9.2899,9.3428 C9.1939,9.3018 9.1349,9.4028 9.0559,9.4178 C8.9989,9.3228 9.1349,9.3018 9.1149,9.2438 C8.9389,9.1658 8.8609,9.4028 8.7269,9.4768 C8.7449,9.3228 8.9209,9.3018 8.9789,9.1658 C8.8819,9.1078 8.8039,9.2048 8.7269,9.2228 C8.7639,9.2048 8.8419,9.0658 8.7269,9.0658 C8.8239,8.9108 9.0369,8.9718 9.0959,8.7958 L8.9389,8.7958 C9.0959,8.6798 9.2709,8.5428 9.4059,8.4238 C9.3499,8.4238 9.2309,8.2698 9.1349,8.4028 C9.1349,8.3848 9.1729,8.3658 9.1529,8.3498 C9.0739,8.2698 8.9789,8.4028 8.8819,8.4028 C8.8819,8.4238 8.8999,8.3498 8.8419,8.3268 L8.7839,8.3268 C8.8419,8.2898 8.9209,8.1908 8.9989,8.1338 L8.9589,8.0938 C9.2539,7.9188 9.5439,7.7238 9.8359,7.5858 L9.8959,7.5288 C9.8159,7.4318 9.6609,7.4318 9.5839,7.5288 C9.8359,7.5108 9.6029,7.2338 9.8559,7.1978 C9.8959,6.9838 10.0889,6.8258 10.2449,6.7298 C9.9919,6.4918 9.8959,6.0658 9.6029,5.9328 C9.5839,5.7548 9.4059,5.9328 9.3889,5.7548 C9.0369,5.7348 8.6269,5.9098 8.3939,5.5988 C8.2189,5.5388 7.9859,5.5588 7.8099,5.5798 C7.6529,5.7148 7.5959,5.9098 7.4989,6.0658 C7.3429,6.1838 7.2639,6.3788 7.1469,6.5518 C6.9719,6.7888 6.7579,7.0808 6.4469,7.1788 L6.4469,7.1378 C6.2299,7.4318 5.7639,7.3138 5.4909,7.6258 L5.4709,7.5468 C5.3729,7.5288 5.2959,7.5858 5.2759,7.6658 L5.2759,7.7038 C5.1389,7.6658 5.0419,7.8208 4.9849,7.8988 C4.6519,8.2498 4.1069,8.2498 3.7569,8.5428 C3.7169,8.5618 3.7739,8.5428 3.7569,8.5208 C3.1109,8.6588 2.8009,9.1448 2.3709,9.6138 C2.2539,9.8078 2.0589,9.9248 1.9039,10.0828 C1.9429,10.2378 1.7079,10.2938 1.6299,10.3748 C1.7079,10.2378 1.8869,10.1208 1.9039,9.9658 C1.7469,10.0408 1.7079,10.2188 1.5339,10.2938 C1.4359,10.2188 1.6299,10.1588 1.5729,10.0828 L1.3389,10.2578 L1.5549,9.9658 C1.4359,9.9828 1.3189,10.1808 1.1839,10.1978 C1.1459,10.2578 1.0869,10.2578 1.0089,10.2578 L1.0089,10.2378 C1.0869,10.1808 1.2219,10.0408 1.3389,9.9248 C1.2029,9.8488 1.0459,10.0208 0.9479,10.0028 C0.9099,9.9828 0.9309,9.8868 0.8329,9.9248 C0.9309,9.8488 1.0269,9.7908 1.0649,9.6728 C0.9889,9.6528 0.8919,9.7108 0.8119,9.7498 C0.8329,9.6528 1.0269,9.5948 0.9689,9.4368 C0.7159,9.4028 0.7549,9.6528 0.5399,9.7108 C0.7549,9.4178 1.0649,9.2438 1.2819,8.9328 L1.2599,8.9108 C1.6709,8.4638 2.1769,8.1908 2.6839,7.8988 C3.0939,7.6658 3.6389,7.5468 3.9319,7.1558 C4.0479,7.0008 4.1639,6.8658 4.2419,6.7078 C4.3009,6.7298 4.3199,6.6718 4.3399,6.6318 C4.6329,6.4548 4.9439,6.3398 5.2959,6.3398 C5.4499,6.1838 5.7439,6.2818 5.8599,6.0658 C6.2699,5.5798 6.4249,4.9768 6.7759,4.4858 C6.8939,4.3318 7.0309,4.0778 7.2639,4.0198 C7.8469,4.0778 8.4139,4.1768 8.9589,4.3318" id="Fill-9" fill="#009D96" mask="url(#mask-2)"></path>
            <polygon id="Fill-10" fill="#009D96" mask="url(#mask-2)" points="13.3055 6.6501 13.2285 6.3991 13.3055 6.6111"></polygon>
            <path d="M13.4423,7.0408 C13.3653,7.0228 13.3823,6.9638 13.3443,6.9038 C13.3823,6.9248 13.4213,6.9838 13.4423,7.0408" id="Fill-11" fill="#009D96" mask="url(#mask-2)"></path>
            <path d="M4.1464,7.1785 C4.0874,7.0625 4.2424,7.0235 4.3004,6.9245 C4.2814,7.0235 4.2244,7.1195 4.1464,7.1785" id="Fill-12" fill="#009D96" mask="url(#mask-2)"></path>
            <polygon id="Fill-13" fill="#009D96" mask="url(#mask-2)" points="6.0155 7.2156 6.0155 7.1976 6.0765 7.1976"></polygon>
            <path d="M5.6083,7.3337 C5.5683,7.3727 5.5473,7.4317 5.4913,7.4087 C5.4913,7.3537 5.5683,7.2947 5.6083,7.3337" id="Fill-14" fill="#009D96" mask="url(#mask-2)"></path>
            <path d="M9.3495,7.6658 C9.2535,7.7438 9.0555,7.8038 9.0375,7.9188 C8.8615,7.8988 8.7445,8.0728 8.6075,8.0728 C8.6265,7.9188 8.8615,8.0158 8.8815,7.8598 L9.0375,7.7438 L9.0555,7.8038 C9.1155,7.7438 9.3095,7.7818 9.2535,7.6258 L9.3495,7.6658 Z" id="Fill-15" fill="#009D96" mask="url(#mask-2)"></path>
            <path d="M8.7264,7.782 C8.6844,7.86 8.6074,7.919 8.5114,7.937 C8.5504,7.841 8.6264,7.841 8.7264,7.782" id="Fill-16" fill="#009D96" mask="url(#mask-2)"></path>
            <path d="M4.7099,8.0154 C4.7489,8.0734 4.6719,8.0154 4.6519,8.0534 C4.6719,8.0354 4.6929,8.0154 4.7099,8.0154" id="Fill-17" fill="#009D96" mask="url(#mask-2)"></path>
            <polygon id="Fill-18" fill="#009D96" mask="url(#mask-2)" points="9.095 8.1717 9.153 8.1717 9.153 8.1117 9.095 8.1117"></polygon>
            <path d="M9.0165,8.2497 C9.0165,8.2897 8.9785,8.2897 8.9585,8.3267 L8.9005,8.3267 C8.8815,8.2697 8.9395,8.2497 8.9785,8.2317 C8.9985,8.2317 8.9985,8.2497 9.0165,8.2497" id="Fill-19" fill="#009D96" mask="url(#mask-2)"></path>
            <path d="M9.3885,8.6228 C9.3675,8.6968 9.2705,8.6968 9.2315,8.7178 C9.1725,8.6968 9.2535,8.6798 9.2535,8.6398 C9.3095,8.6588 9.3285,8.6018 9.3885,8.6228" id="Fill-20" fill="#009D96" mask="url(#mask-2)"></path>
            <path d="M9.4266,8.737 C9.4066,8.814 9.2706,8.814 9.1946,8.873 C9.1726,8.796 9.2896,8.756 9.3496,8.717 C9.3676,8.737 9.4266,8.717 9.4266,8.737" id="Fill-21" fill="#009D96" mask="url(#mask-2)"></path>
            <path d="M14.1044,8.9324 C14.1824,8.9714 14.2224,9.0664 14.2814,9.1244 L14.2224,9.1844 C14.0844,9.0454 14.0054,8.9114 13.9294,8.7374 C13.9884,8.7954 14.0274,8.8914 14.1044,8.9324" id="Fill-22" fill="#009D96" mask="url(#mask-2)"></path>
            <path d="M16.911,9.9656 C16.851,10.0026 16.774,9.9246 16.716,9.9056 L16.911,9.9656 Z" id="Fill-23" fill="#009D96" mask="url(#mask-2)"></path>
            <path d="M17.4569,10.2576 C17.2999,10.1586 17.0859,10.1586 16.9699,10.0406 C17.1459,10.0626 17.3199,10.1586 17.4569,10.2576" id="Fill-24" fill="#009D96" mask="url(#mask-2)"></path>
            <polygon id="Fill-25" fill="#009D96" mask="url(#mask-2)" points="15.744 10.238 15.508 10.062 15.664 10.141"></polygon>
            <polygon id="Fill-26" fill="#009D96" mask="url(#mask-2)" points="17.3983 10.821 17.4183 10.783 17.4753 10.821"></polygon>
            <path d="M17.3202,10.9197 L17.2412,10.9197 L17.2412,10.8807 C17.2622,10.8987 17.3002,10.8987 17.3202,10.9197" id="Fill-27" fill="#009D96" mask="url(#mask-2)"></path>
        </g>
    </g>
</svg>