<?xml version="1.0" encoding="UTF-8"?>
<svg width="106px" height="152px" viewBox="0 0 106 152" version="1.1" xmlns="http://www.w3.org/2000/svg" xmlns:xlink="http://www.w3.org/1999/xlink">
    <!-- Generator: Sketch 50.2 (55047) - http://www.bohemiancoding.com/sketch -->
    <title>Group</title>
    <desc>Created with Sketch.</desc>
    <defs>
        <polygon id="path-1" points="0.6075 0.8223 14.1495 0.8223 14.1495 14 0.6075 14"></polygon>
        <polygon id="path-3" points="0.390336114 0.758 17.2286626 0.758 17.2286626 6.77032369 0.390336114 6.77032369"></polygon>
        <polygon id="path-5" points="0.166585964 0.723135926 54.483 0.723135926 54.483 36.4462266 0.166585964 36.4462266"></polygon>
        <polygon id="path-7" points="0.1832 0.723147817 7.483 0.723147817 7.483 12.5473 0.1832 12.5473"></polygon>
    </defs>
    <g id="Page-1" stroke="none" stroke-width="1" fill="none" fill-rule="evenodd">
        <g id="Group" transform="translate(-3.000000, 0.000000)">
            <g id="Group-11" transform="translate(31.500000, 109.000000) rotate(-2.000000) translate(-31.500000, -109.000000) translate(2.000000, 67.000000)">
                <g id="Group-29" transform="translate(1.000000, 70.000000)">
                    <mask id="mask-2" fill="white">
                        <use xlink:href="#path-1"></use>
                    </mask>
                    <g id="Clip-28"></g>
                    <path d="M0.6075,1.9583 L0.6075,5.0453 L8.6085,14.0003 L13.0525,14.0003 L14.1495,12.3793 L14.1495,12.3783 C13.2335,11.5623 12.1655,10.9273 11.0085,10.5193 L9.6075,10.0233 L6.0065,0.8223 L0.6075,1.9583 Z" id="Fill-27" fill="#303030" mask="url(#mask-2)"></path>
                </g>
                <path d="M39.1334,4.8255 C39.1334,4.8255 18.9674,48.1855 12.7784,54.9745 C6.5894,61.7635 0.0004,70.9475 0.0004,70.9475 C0.0004,70.9475 1.9964,73.3275 5.7904,73.6355 C9.5834,73.9415 31.9454,46.7885 33.7424,44.9915 C35.5394,43.1945 58.1274,0.4765 58.1274,0.4765 L39.1334,4.8255 Z" id="Fill-2" fill="#575757"></path>
            </g>
            <g id="Group-40" transform="translate(35.000000, 0.000000)">
                <g id="Group-13" transform="translate(4.000000, 66.000000)">
                    <polygon id="Fill-1" fill="#303030" points="16.0783972 82.5165298 16 85 33.804007 85 34 83.4001202 26.5650044 81.4425967 23.8260017 80"></polygon>
                    <path d="M0.3365,8.2122 C0.3365,8.2122 -1.0615,13.2472 2.1335,17.6402 C5.3275,22.0322 21.3005,44.5942 21.3005,44.5942 L15.9095,82.2462 L18.5055,82.2462 L24.8945,80.5322 C24.8945,80.5322 29.8855,56.5732 31.4825,50.7832 C33.0805,44.9932 20.9015,0.6492 20.9015,0.6492 L0.3365,8.2122 Z" id="Fill-25" fill="#696969"></path>
                </g>
                <path d="M25.0987,28.3011 L26.3497,19.3401 L27.1327,16.7551 C27.1327,16.7551 36.6577,19.2101 36.7257,19.8701 C36.7947,20.5301 33.6937,32.2731 33.6937,32.2731 L25.0987,28.3011 Z" id="Fill-4" fill="#FFD4B3"></path>
                <path d="M35.3592,25.8314 L36.2052,22.2894 C36.1392,21.6594 29.7722,20.7284 29.4102,20.7484 C29.4102,20.7484 34.6352,25.8614 35.3592,25.8314 Z" id="Fill-6" fill="#E5BC9D"></path>
                <path d="M26.9859,2.6224 C27.4889,2.4054 28.0409,2.1824 28.6249,1.9654 C28.0469,2.1344 27.4989,2.3534 26.9859,2.6224" id="Fill-8" fill="#FFD4B3"></path>
                <path d="M37.773,6.6185 C37.773,6.6185 37.292,7.8215 36.634,8.4965 C35.977,9.1715 34.341,9.7655 34.341,9.7655 L33.01,14.4535 L29.629,14.0175 L27.984,13.9465 L26.35,19.3405 C28.2,20.6155 30.495,21.2655 32.906,21.0145 C38.273,20.4545 42.171,15.6495 41.612,10.2825 C41.48,9.0165 41.077,7.8395 40.473,6.7815 C40.216,6.7845 39.998,6.7735 39.851,6.7655 C39.058,6.7275 37.773,6.6185 37.773,6.6185" id="Fill-10" fill="#FFD4B3"></path>
                <path d="M30.2969,1.6371 C29.7139,1.6981 29.1569,1.8101 28.6249,1.9651 C28.0409,2.1821 27.4889,2.4061 26.9859,2.6221 C23.6269,4.3811 21.7409,8.1581 22.1729,12.3081 C22.4819,15.2661 24.0799,17.7751 26.3499,19.3401 L27.9839,13.9471 L29.6289,14.0181 L33.0099,14.4531 L34.3409,9.7661 C34.3409,9.7661 35.9769,9.1711 36.6339,8.4961 C37.2919,7.8221 37.7729,6.6181 37.7729,6.6181 C37.7729,6.6181 39.0579,6.7281 39.8509,6.7661 C39.9979,6.7741 40.2159,6.7841 40.4729,6.7821 C38.5119,3.3521 34.3999,1.2091 30.2969,1.6371" id="Fill-12" fill="#0F3872"></path>
                <path d="M41.6119,10.2826 C42.1719,15.6496 38.2739,20.4546 32.9059,21.0136 C27.5379,21.5736 22.7329,17.6766 22.1739,12.3076 C21.6139,6.9406 24.9289,2.1966 30.2969,1.6366 C35.6649,1.0776 41.0519,4.9146 41.6119,10.2826" id="Fill-14" fill="#FFD4B3"></path>
                <path d="M30.3775,20.9515 C30.3775,20.9515 38.7305,24.5315 40.5505,23.3715 C41.5095,22.7595 42.9775,14.3425 41.6115,10.2825 C40.2465,6.2225 33.2685,11.6975 32.6695,13.5185 C32.0715,15.3405 29.6275,19.5735 30.3775,20.9515" id="Fill-16" fill="#FFD4B3"></path>
                <path d="M40.5587,6.7806 C38.7597,3.3296 34.9927,1.2276 30.8797,1.5756 C24.5537,2.1116 21.6137,6.9406 22.1737,12.3076 C22.4817,15.2656 24.0797,17.7746 26.3497,19.3406 L27.9847,13.9466 L29.6287,14.0176 L33.0107,14.4536 L34.3407,9.7656 C34.3407,9.7656 35.9767,9.1716 36.6347,8.4966 C37.2917,7.8216 37.7727,6.6186 37.7727,6.6186 C37.7727,6.6186 39.0587,6.7276 39.8507,6.7656 C40.0147,6.7746 40.2657,6.7866 40.5587,6.7806" id="Fill-18" fill="#2B2B2B"></path>
                <path d="M31.4942,13.1234 C31.6512,14.6314 30.7542,15.9604 29.4902,16.0924 C28.2262,16.2244 27.0742,15.1084 26.9172,13.6014 C26.7602,12.0934 27.6572,10.7644 28.9212,10.6324 C30.1852,10.5004 31.3372,11.6164 31.4942,13.1234" id="Fill-20" fill="#FFD4B3"></path>
                <g id="Group-24" transform="translate(26.000000, 0.000000)">
                    <mask id="mask-4" fill="white">
                        <use xlink:href="#path-3"></use>
                    </mask>
                    <g id="Clip-23"></g>
                    <path d="M13.4493,6.7435 C13.4493,6.7435 17.1293,7.1105 17.2253,5.1295 C17.3223,3.1485 15.3243,0.5665 10.7673,0.7685 C6.2093,0.9715 2.5843,1.6675 0.6243,2.8045 C-1.3347,3.9405 9.6523,5.4945 9.6523,5.4945 L13.4493,6.7435 Z" id="Fill-22" fill="#2B2B2B" mask="url(#mask-4)"></path>
                </g>
                <path d="M24.941,28.141 C24.941,28.141 16.715,35.921 13.72,46.703 C10.726,57.485 0.742,76.453 0.742,76.453 L30.07,75.254 L35.483,30.731 L24.941,28.141 Z" id="Fill-30" fill="#D1EBE9"></path>
                <path d="M20.9844,45.8001 C22.3474,46.6831 23.9724,47.6071 25.8604,48.4541 C28.5294,49.6531 30.9984,50.3711 33.0484,50.8161 C33.5044,47.2791 33.9594,43.7431 34.4144,40.2071 L20.9844,45.8001 Z" id="Fill-32" fill="#7FB6B2"></path>
                <g id="Group-36" transform="translate(19.000000, 10.000000)">
                    <mask id="mask-6" fill="white">
                        <use xlink:href="#path-5"></use>
                    </mask>
                    <g id="Clip-35"></g>
                    <path d="M53.8194,5.683 C52.4444,-0.681 51.5754,0.39 49.1794,1.792 C46.7844,3.195 49.2274,3.759 46.6314,7.414 C44.0364,11.07 10.8864,21.858 10.8864,21.858 C10.8864,21.858 2.1684,23.868 0.8294,27.461 C-0.5086,31.056 0.1434,35.698 3.1114,36.296 C6.0804,36.896 10.8864,35.505 10.8864,35.505 C10.8864,35.505 51.8224,14.94 53.0204,13.135 C54.2184,11.329 55.1784,11.975 53.8194,5.683" id="Fill-34" fill="#D1EBE9" mask="url(#mask-6)"></path>
                </g>
                <g id="Group-39" transform="translate(66.000000, 10.000000)">
                    <mask id="mask-8" fill="white">
                        <use xlink:href="#path-7"></use>
                    </mask>
                    <g id="Clip-38"></g>
                    <path d="M2.1802,1.7923 C-0.0098,3.0743 1.8322,3.6633 0.1832,6.5473 C0.7582,9.6743 3.2882,12.1083 6.4612,12.5473 C7.4242,11.3823 8.0062,11.1773 6.8192,5.6833 C5.4452,-0.6817 4.5762,0.3903 2.1802,1.7923" id="Fill-37" fill="#FFD4B3" mask="url(#mask-8)"></path>
                </g>
            </g>
            <ellipse id="Oval" fill="#505050" cx="74.5" cy="12" rx="1" ry="1"></ellipse>
        </g>
    </g>
</svg>