<?xml version="1.0" encoding="UTF-8"?>
<svg width="120px" height="110px" viewBox="0 0 120 110" version="1.1" xmlns="http://www.w3.org/2000/svg" xmlns:xlink="http://www.w3.org/1999/xlink">
    <!-- Generator: Sketch 50.2 (55047) - http://www.bohemiancoding.com/sketch -->
    <title>資產 18</title>
    <desc>Created with Sketch.</desc>
    <defs>
        <linearGradient x1="88.7466419%" y1="-0.817560757%" x2="54.0977082%" y2="40.4785904%" id="linearGradient-1">
            <stop stop-color="#B6FFFE" stop-opacity="0.7" offset="0%"></stop>
            <stop stop-color="#64CFE5" stop-opacity="0" offset="100%"></stop>
        </linearGradient>
    </defs>
    <g id="Page-1" stroke="none" stroke-width="1" fill="none" fill-rule="evenodd">
        <g id="資產-18" transform="translate(-20.000000, 0.000000)" fill-rule="nonzero">
            <path d="M110.925768,31.1754662 C109.182886,29.8341722 108.434782,32.3948245 105.547502,35.4716718 C104.067468,37.052773 103.226356,39.2191661 101.770585,37.7681298 C100.464435,36.459352 95.9070626,30.4072706 95.9313255,29.9926888 C95.9555883,29.578107 95.8706684,28.7530079 95.8706684,27.728747 C95.8706684,27.1962939 95.9394131,26.1435812 95.6320836,25.4526116 C95.4158321,24.9128099 94.8927315,24.5612142 94.3138021,24.5665446 C93.7314936,24.6600287 93.6870117,25.3266112 93.7072308,25.6964832 C93.6167964,24.9516426 93.3197179,24.2473958 92.8499434,23.6642195 C92.0088312,22.696862 91.23242,23.0951856 90.2821249,23.0179596 C89.3887803,22.9345479 88.4958565,23.1816853 87.7709198,23.7129938 C86.0118631,24.9567392 87.7062189,26.3955819 88.4866739,27.2694554 C89.267129,28.1433288 89.8332622,30.5210773 90.7633382,31.6347579 C91.6934141,32.7484384 92.4657816,31.4803058 93.3715947,33.0248262 C94.2774078,34.5693467 97.8197841,43.9177598 101.863593,43.9990504 C105.907401,44.0803409 111.067301,38.9183911 111.463594,37.7803234 C111.859887,36.6422557 112.668649,32.5208248 110.925768,31.1754662 Z" id="Shape" fill="#F5BCA1"></path>
            <path d="M112.786302,24.8364166 C111.257706,26.9417718 109.997918,29.8713165 108.774239,31.8379468 C108.292792,32.625415 107.682958,34.1595498 108.19249,33.9881837 C108.44525,33.9025006 108.545552,33.4618449 110.359004,34.3105152 C112.172456,35.1591855 112.421204,36.9422093 112.870555,36.9993313 C113.584702,37.0931747 119.342012,27.2845041 119.99999,23.392045 C120.008015,23.4042854 114.956828,21.85383 112.786302,24.8364166 Z" id="Shape" fill="#F13554"></path>
            <path d="M126.029859,93.2269795 C116.340264,92.1529359 106.687096,94.9940854 104.460999,99.5618108 C102.234902,104.129536 108.285839,108.709421 117.975434,109.775358 C127.665029,110.841296 137.318197,108.012305 139.540247,103.440527 C141.762297,98.8687486 135.715407,94.2969702 126.029859,93.2269795 Z" id="Shape" fill="#CCCCCC"></path>
            <path d="M125.720413,99.5128834 C124.908683,100.040732 119.494444,101.241046 120.038303,103.948984 C120.582162,106.656921 131.215826,103.627213 130.996659,100.564966 C130.789667,98.3125693 126.519968,99.0067269 125.720413,99.5128834 Z" id="Shape" fill="#342245"></path>
            <path d="M114.730581,95.5219824 C113.917408,96.0454027 108.493546,97.2474644 109.038371,99.9512009 C109.583197,102.654937 120.239827,99.6263194 119.995875,96.5724328 C119.808846,94.3199207 115.531556,94.9949523 114.730581,95.5219824 Z" id="Shape" fill="#342245"></path>
            <path d="M112,58 C112,58 113.979912,95.7216253 115.774207,96.550672 C117.568501,97.3797187 120.715147,96.8076765 120.715147,96.8076765 L123,58.2694402 L112,58 Z" id="Shape" fill="#00658F"></path>
            <path d="M122,58 C122,58 124.973418,98.2420192 126.645451,99.4077505 C128.317484,100.573482 131.249719,99.6587066 131.249719,99.6587066 L133,58.2873852 L122,58 Z" id="Shape" fill="#00658F"></path>
            <path d="M125.211718,20.3824345 C125.211718,20.3824345 133.379942,21.0928468 133.6445,27.6261757 C133.909058,34.1595047 134,57.7016636 134,58.5968651 C134,59.4920667 130.87491,63.4711967 121.334292,62.9537866 C112.240115,62.4610151 111,59.8493261 111,58.2519251 C111,54.921611 111.959022,29.6752839 113.195004,24.1685623 C113.972142,20.7273746 121.346693,19.2326343 125.211718,20.3824345 Z" id="Shape" fill="#F13554"></path>
            <path d="M120.001442,16.2171117 C120.001442,16.2171117 119.933287,23.1569306 120.734105,23.7578646 C121.534922,24.3587986 125.969236,23.9206983 125.990534,21.5402241 C126.011832,19.1597499 125.990534,16 125.990534,16 L120.001442,16.2171117 Z" id="Shape" fill="#D8A78E"></path>
            <path d="M115.047165,5.2113104 C115.047165,5.2113104 114.314564,19.7655884 118.623979,20.7932837 C121.859957,21.5610086 126.298654,20.277405 126.486701,15.4720154 C126.674749,10.6666259 128.136032,3.69210863 125.080265,3.44432438 C122.024498,3.19654014 114.725917,1.93730872 115.047165,5.2113104 Z" id="Shape" fill="#F6BDA2"></path>
            <path d="M128.8562,6 C128.8562,6 129.077444,11.040193 128.971077,13.2821377 C128.864709,15.5240825 126.354441,17.7200172 125.512012,16.7747196 C124.669583,15.829422 125.120581,7.63963124 125.120581,7.63963124 L128.8562,6 Z" id="Shape" fill="#DA9200"></path>
            <path d="M121.037642,0.23648431 C121.037642,0.23648431 116.503087,-0.10001147 114.860588,2.93686295 C113.343831,5.72557172 114.074704,9.08632333 115.19066,8.96013741 C115.85292,8.85787275 116.497629,8.6523953 117.104289,8.35023881 C117.93961,7.89707735 118.749174,7.39145167 119.528744,6.8360078 C119.528744,6.8360078 119.28119,7.70248443 118.966836,9.04005516 C120.475735,8.81712671 122.479741,7.20615316 122.89626,6.2176968 C123.025931,5.9190568 123.91398,14.4660496 125.646856,12.7793645 C127.379732,11.0926794 130.25607,8.2072281 128.397453,3.45422521 C126.538835,-1.29877769 121.037642,0.23648431 121.037642,0.23648431 Z" id="Shape" fill="#DA9200"></path>
            <path d="M125.21317,12.6378419 C125.21317,12.6378419 126.100899,10.117228 127.417572,11.3299371 C128.734245,12.5426463 127.626449,16.7519474 126.00392,15.8827702 C124.381391,15.013593 125.21317,12.6378419 125.21317,12.6378419 Z" id="Shape" fill="#F6BDA2"></path>
            <path d="M124.998533,15.3023872 L124.998533,12.493357 C124.998533,11.2959975 124.135108,10.1317829 123.080733,9.89562549 L114.907254,8.04365425 C114.590828,7.96706032 114.258283,7.99169969 113.956656,8.11408716 C113.434489,8.46784174 112.951616,8.87617647 112.516231,9.3321622 C112.166964,9.6983144 111.981256,10.1900942 112.001497,10.6952462 L112.001497,13.5042764 C112.001436,14.6973633 112.780972,15.750993 113.923448,16.1020079 L122.096927,17.9539791 C122.543803,18.0682346 123.0185,17.9670377 123.379611,17.6805337 C123.583014,17.5148092 124.284547,16.8519112 124.454741,16.6944729 C124.822089,16.3261184 125.019129,15.8217034 124.998533,15.3023872 Z" id="Shape" fill="#5A829C"></path>
            <path d="M122.042233,17.999616 C121.938841,18.002116 121.835517,17.9924021 121.73443,17.9706785 L113.544368,16.1228097 C112.629688,15.8246438 112.008612,14.9794493 112.001192,14.022771 L112.001192,11.2158295 C111.987012,10.8788293 112.099722,10.5486746 112.317315,10.2898281 C112.481188,10.109216 112.713207,10.0044011 112.957878,10.0004527 C113.062887,9.99754337 113.167812,10.0086667 113.269841,10.0335242 L121.459903,11.877259 C122.373734,12.1757755 122.993377,13.0212993 122.998919,13.9772977 L122.998919,16.7842393 C123.012285,17.1204233 122.901309,17.4498328 122.686956,17.7102406 C122.520909,17.8902651 122.287916,17.994841 122.042233,17.999616 Z" id="Shape" fill="#A1DFE2"></path>
            <path d="M117.82511,12 L117.770331,12 L116.281024,11.6500031 C116.114867,11.5944441 116.001902,11.4367134 116.000281,11.2580066 L116.000281,11.2300068 C115.9973,11.1662434 116.018101,11.1036994 116.058484,11.0550084 C116.088076,11.0211823 116.130501,11.0020481 116.17489,11.0025088 C116.193003,10.9991637 116.211556,10.9991637 116.229669,11.0025088 L117.722399,11.3525057 C117.886027,11.40885 117.997144,11.564514 117.999719,11.7410023 L117.999719,11.769002 C118.0027,11.8327655 117.981899,11.8953095 117.941516,11.9440005 C117.912281,11.978756 117.869941,11.9991247 117.82511,12 Z" id="Shape" fill="#0068FF"></path>
            <path d="M124.174997,10.9788992 C124.460978,10.7037405 124.822308,10.5302884 125.207586,10.4832184 C125.675939,10.3554257 126.188546,10.0959677 127.258013,9.24401625 C129.326879,7.60207344 129.286313,6.19248102 129.282625,6.01434572 C129.282625,6.01434572 129.817359,5.84782793 129.935369,6.64943681 C130.04492,7.58831502 130.015063,8.53935866 129.846861,9.46862164 C129.666158,10.0533701 128.44549,12.3575116 127.442404,12.9538776 C126.439317,13.5502436 124.565905,14.4176851 124.226626,13.7709765 C123.887347,13.1242679 123.979542,11.2577197 124.174997,10.9788992 Z" id="Shape" fill="#5A829C"></path>
            <path d="M126.000184,12.5799564 C126.000184,12.5799564 125.965379,15.3863514 126.852906,14.9549028 C127.740433,14.5234542 128.088483,12.7343279 127.981167,11.3924832 C127.873852,10.0506384 126.000184,12.5799564 126.000184,12.5799564 Z" id="Shape" fill="#5A829C"></path>
            <path d="M128.464725,6.01654571 C128.464725,6.19208072 128.513021,7.58109689 126.255208,9.19907178 C125.088068,10.0347711 124.528646,10.2942576 124.017519,10.4201849 C123.812263,10.4736086 123.566761,10.5422962 123.329309,10.6262477 L123.429924,10.5194003 C123.130427,9.89596675 122.556077,9.42958786 121.860322,9.24486352 L113.935843,7.53912113 C113.629056,7.46857494 113.306642,7.49126883 113.014205,7.60399277 C112.644813,7.8274317 112.304409,8.09127321 112,8.39008434 C113.400779,8.50023965 114.788202,8.73013231 116.14536,9.07696047 C121.860322,10.3514973 122.04143,10.4545287 122.323153,10.8819183 C122.604877,11.3093079 122.596828,11.8817047 122.725616,12 C128.565341,10.3514973 128.794744,7.4208258 129,6.18063278 C128.870996,6.03107953 128.661651,5.9669053 128.464725,6.01654571 Z" id="Shape" fill="#648FAC"></path>
            <path d="M127.747067,12.7376221 C127.679367,12.556932 127.554902,12.4246043 127.406668,12.3757202 C127.258435,12.3268361 127.101406,12.3663331 126.97721,12.4837401 C126.636028,12.8222168 126.402221,13.3156839 126.321082,13.8685511 C126.321082,13.8685511 125.931779,14.2839945 126.010514,13.6377493 C126.098642,12.8560725 126.532757,12.2197985 127.11281,12.0221364 C127.72957,11.8721152 128.070757,12.5241304 127.987647,12.7895525 C127.904538,13.0549746 127.852047,12.9164935 127.747067,12.7376221 Z" id="Shape" fill="#648FAC"></path>
            <path d="M129.303101,36.0872543 C129.303101,36.0872543 130.010391,49.1402405 129.556893,50.5133787 C129.103396,51.8865169 125.109289,57.9839043 123.798723,58.7685547 C122.488157,59.553205 122.305093,58.3803162 120.86139,59.1772267 C119.417687,59.9741373 118.96419,60.6443595 119.613232,61.134766 C120.262274,61.6251725 121.527075,60.4972375 121.88072,60.7260939 C122.234364,60.9549503 119.713085,62.5405979 118.80609,62.5405979 C117.899095,62.5405979 117.953181,63.1290857 118.053034,64.45727 C118.152887,65.7854542 119.966877,66.7131399 123.54077,65.2746141 C127.114663,63.8360884 127.218677,61.4943974 128.225524,60.5135844 C129.232372,59.5327714 134.624416,54.2813352 134.928134,51.8293028 C135.231853,49.3772703 134.474637,35.0001866 134.474637,35.0001866 C134.474637,35.0001866 129.810685,34.9593194 129.303101,36.0872543 Z" id="Shape" fill="#F5BCA1"></path>
            <path d="M123,15.785717 L123,12.9974241 C122.994564,12.0477771 122.386844,11.2078708 121.490597,10.9113376 L113.458127,9.07985217 C113.358062,9.05515977 113.255155,9.04411038 113.152167,9.04700041 L0,6 L113.409174,116 C113.409174,116 123,16.1511927 123,15.785717 Z" id="Shape" fill="url(#linearGradient-1)"></path>
            <g id="Group" opacity="0.8" transform="translate(65.000000, 19.000000)">
                <path d="M10.7923529,15.0251908 C10.7923529,15.6970992 10.2488235,15.9279389 9.55705882,15.540458 L1.55235294,10.8989313 C0.858601529,10.4939854 0.399638828,9.78181743 0.317058824,8.9821374 L0.317058824,0.943969466 C0.317058824,0.272061069 0.860588235,0.0453435115 1.55235294,0.432824427 L9.57764706,5.07435115 C10.2713985,5.47929704 10.7303612,6.19146501 10.8129412,6.99114504 L10.7923529,15.0251908 Z" id="Shape" fill="#FF56A9"></path>
                <path d="M22.7129412,21.9174046 C22.7129412,22.589313 22.1694118,22.8201527 21.4982353,22.4326718 L13.4729412,17.791145 C12.7870741,17.3814522 12.3362658,16.6700813 12.2582353,15.8743511 L12.2582353,7.83206107 C12.2582353,7.16015267 12.8017647,6.93343511 13.4729412,7.32091603 L21.4982353,11.9541985 C22.1841024,12.3638913 22.6349106,13.0752622 22.7129412,13.8709924 L22.7129412,21.9174046 Z" id="Shape" fill="#FFE375"></path>
                <path d="M34.6335294,28.8096183 C34.6335294,29.4815267 34.09,29.7123664 33.3982353,29.3248855 L25.3729412,24.6833588 C24.6870741,24.2736659 24.2362658,23.562295 24.1582353,22.7665649 L24.1582353,14.7325191 C24.1582353,14.0606107 24.7017647,13.829771 25.3729412,14.2172519 L33.3982353,18.8587786 C34.0919867,19.2637245 34.5509494,19.9758925 34.6335294,20.7755725 L34.6335294,28.8096183 Z" id="Shape" fill="#8DEFAB"></path>
                <path d="M10.7923529,27.181374 C10.7923529,27.8532824 10.2488235,28.0841221 9.55705882,27.6966412 L1.53176471,23.0551145 C0.837864094,22.6483426 0.379086284,21.9349306 0.296470588,21.1341985 L0.296470588,13.1001527 C0.296470588,12.4282443 0.84,12.1974046 1.53176471,12.5890076 L9.57764706,17.2305344 C10.2713985,17.6354802 10.7303612,18.3476482 10.8129412,19.1473282 L10.7923529,27.181374 Z" id="Shape" fill="#8DEFAB"></path>
                <path d="M22.7129412,34.0735878 C22.7129412,34.7454962 22.1694118,34.9763359 21.4982353,34.588855 L13.4729412,29.9473282 C12.7870741,29.5376354 12.3362658,28.8262645 12.2582353,28.0305344 L12.2582353,19.9923664 C12.2582353,19.320458 12.8017647,19.0937405 13.4729412,19.4812214 L21.4982353,24.1227481 C22.1841024,24.5324409 22.6349106,25.2438119 22.7129412,26.039542 L22.7129412,34.0735878 Z" id="Shape" fill="#FF56A9"></path>
                <path d="M34.6335294,40.9658015 C34.6335294,41.6377099 34.09,41.8685496 33.3982353,41.4810687 L25.3729412,36.839542 C24.6870741,36.4298491 24.2362658,35.7184782 24.1582353,34.9227481 L24.1582353,26.8845802 C24.1582353,26.2167939 24.7017647,25.9859542 25.3729412,26.3734351 L33.3982353,31.0149618 C34.0919867,31.4199077 34.5509494,32.1320757 34.6335294,32.9317557 L34.6335294,40.9658015 Z" id="Shape" fill="#FFE375"></path>
                <path d="M10.7923529,39.3375573 C10.7923529,40.0094656 10.2488235,40.2403053 9.55705882,39.8528244 L1.53176471,35.2112977 C0.838486765,34.8058562 0.379696848,34.0939563 0.296470588,33.2945038 L0.296470588,25.2563359 C0.296470588,24.5844275 0.84,24.3577099 1.53176471,24.7451908 L9.55705882,29.3825954 C10.2504873,29.7898602 10.7090936,30.5030056 10.7923529,31.3035115 L10.7923529,39.3375573 Z" id="Shape" fill="#FF56A9"></path>
                <path d="M22.7129412,46.229771 C22.7129412,46.9016794 22.1694118,47.1325191 21.4982353,46.7450382 L13.4729412,42.1035115 C12.7870741,41.6938186 12.3362658,40.9824477 12.2582353,40.1867176 L12.2582353,32.1526718 C12.2582353,31.4807634 12.8017647,31.2540458 13.4729412,31.6415267 L21.4982353,36.2748092 C22.1841024,36.684502 22.6349106,37.3958729 22.7129412,38.1916031 L22.7129412,46.229771 Z" id="Shape" fill="#8DEFAB"></path>
                <path d="M34.6335294,53.1219847 C34.6335294,53.7938931 34.09,54.0247328 33.3982353,53.6372519 L25.3729412,48.9957252 C24.6870741,48.5860323 24.2362658,47.8746614 24.1582353,47.0789313 L24.1582353,39.0448855 C24.1582353,38.3729771 24.7017647,38.1421374 25.3729412,38.5296183 L33.3982353,43.171145 C34.0919867,43.5760909 34.5509494,44.2882589 34.6335294,45.0879389 L34.6335294,53.1219847 Z" id="Shape" fill="#FFE375"></path>
            </g>
        </g>
    </g>
</svg>