<?xml version="1.0" encoding="UTF-8"?>
<svg width="34px" height="115px" viewBox="0 0 34 115" version="1.1" xmlns="http://www.w3.org/2000/svg" xmlns:xlink="http://www.w3.org/1999/xlink">
    <!-- Generator: Sketch 50.2 (55047) - http://www.bohemiancoding.com/sketch -->
    <title>Group</title>
    <desc>Created with Sketch.</desc>
    <defs>
        <polygon id="path-1" points="0 0.269482188 33.7278963 0.269482188 33.7278963 18.9997987 0 18.9997987"></polygon>
        <polygon id="path-3" points="0.484873461 0.591428571 16.1499901 0.591428571 16.1499901 19.1592308 0.484873461 19.1592308"></polygon>
    </defs>
    <g id="Page-1" stroke="none" stroke-width="1" fill="none" fill-rule="evenodd">
        <g id="Group">
            <path d="M5.80306441,22.00119 C7.69163035,22.0575203 8.68691625,25.6152264 7.91167159,31.3876044 C7.13788416,37.1614648 6.78377805,43.7002321 8.39401367,47.6952395 C10.0057065,51.6902469 11.7398064,52.9013493 11.9860777,54.0235091 C12.2338063,55.1456689 9.09348253,53.2882498 9.09348253,53.2882498 C9.09348253,53.2882498 11.371128,56.9467575 10.1747448,58.5373486 C8.97690439,60.1294221 5.58156594,57.4151888 3.82997932,53.4127695 C2.25325992,49.8135569 0.899496219,45.4998384 1.00587378,38.5830649 C1.09767906,32.4964228 1.41244005,21.8707408 5.80306441,22.00119" id="Fill-1" fill="#FFA784"></path>
            <g id="Group-5" transform="translate(0.000000, 96.000000)">
                <mask id="mask-2" fill="white">
                    <use xlink:href="#path-1"></use>
                </mask>
                <g id="Clip-4"></g>
                <path d="M6.74693043,15.2532129 C14.1973652,19.3905599 24.7669304,20.2294034 30.3547565,17.1271041 C35.9425826,14.0248048 34.4318,8.15432177 26.979887,4.01697483 C19.5279739,-0.120372109 8.9584087,-0.960637415 3.37206087,2.1416619 C-2.21428696,5.24538299 -0.703504348,11.1144442 6.74693043,15.2532129" id="Fill-3" fill="#B9C4C6" mask="url(#mask-2)"></path>
            </g>
            <path d="M4.06611861,100.963895 C4.07682548,102.916295 3.43594279,103.193862 5.93370276,103.995572 C6.41245284,104.14783 15.5331771,100.329263 17.466532,99.3335256 C19.3998869,98.3377878 15.5974183,97.8540668 13.7114795,98.0386623 C10.8129767,98.3229663 4.06611861,100.963895 4.06611861,100.963895" id="Fill-6" fill="#07072B"></path>
            <path d="M18.0660578,107.964559 C18.0767642,109.916002 17.4359117,110.194972 19.9350836,110.995495 C20.4122817,111.149131 29.5341063,107.328454 31.4658408,106.332517 C33.4006343,105.33658 29.5983445,104.85411 27.710965,105.038742 C24.8125985,105.323103 18.0660578,107.964559 18.0660578,107.964559" id="Fill-8" fill="#07072B"></path>
            <path d="M4.82576143,53 L4,101.427829 C4,101.427829 8.38176928,102.460445 9.55499019,99.5948243 C9.55499019,99.5948243 10.9201134,87.2063439 11.6542851,78.0325589 C12.1892855,71.3242012 12.5207531,64.5618027 13.3494221,65.0817625 C14.4354147,64.9064951 14.8715563,66.5832194 15.8441521,79.6683874 C16.7440576,91.7968879 18.3345206,107.401524 18.3345206,107.401524 C18.3345206,107.401524 21.7306099,109.457994 24,105.946805 L23.9956386,54.3422558 L4.82576143,53 Z" id="Fill-10" fill="#12123F"></path>
            <path d="M7,21.0006846 C7,21.0006846 2.13309199,20.8201866 1.16418228,26.3207075 C0.202725724,31.780772 0,36.9840936 0,36.9840936 C0,36.9840936 5.11286201,39.269883 5.95059625,36.9840936 C6.78982112,34.7014164 7,21.0006846 7,21.0006846" id="Fill-12" fill="#9DC6C5"></path>
            <path d="M13.7562373,20.5115108 C16.829352,21.343376 22.6122723,23.1788081 23.325379,30.2156178 C24.1135496,37.9791994 23.9934475,53.9607802 23.9934475,53.9607802 C23.9934475,53.9607802 10.7957184,59.353102 4.19760454,52.6004882 C1.90965789,25.7691356 2.89749837,21.478073 7.18214388,20.3753336 C10.7491788,19.4576176 13.7562373,20.5115108 13.7562373,20.5115108" id="Fill-14" fill="#ADD2D8"></path>
            <path d="M22.91117,10 C22.91117,10 24.0840854,12.9174067 23.9951908,13.7492599 C23.9087654,14.5825933 22,15 22,15 L22.91117,10 Z" id="Fill-16" fill="#E88867"></path>
            <path d="M22.8298028,7.50575755 C23.4845771,12.8323436 22.1269289,16.08588 20.853067,17.833576 C20.022962,18.9679949 18.3860262,19.3422955 16.6125497,18.9017725 C15.160254,18.5404284 15.1090512,19.3437352 15.1043964,22.4029231 C15.0144037,23.2796504 8.45424747,23.5186269 8.03221282,20.7934303 C7.90963658,19.9915632 8.18271783,18.8801782 8.09427674,17.1382406 C7.88636261,12.9935808 8.15789226,7.187602 9.69242266,5.06272605 C11.2781558,2.86298997 21.7064458,-1.63005735 22.8298028,7.50575755" id="Fill-18" fill="#FFA784"></path>
            <g id="Group-22" transform="translate(6.000000, 0.000000)">
                <mask id="mask-4" fill="white">
                    <use xlink:href="#path-3"></use>
                </mask>
                <g id="Clip-21"></g>
                <path d="M7.80158333,18.4884286 C6.511,19.7427143 3.16625,19.1027143 2.19441667,17.6841429 C0.51425,15.237 0.28475,10.3798571 0.612,7.29985714 C1.03841667,3.27985714 3.451,0.0212857143 10.761,0.674142857 C17.9024167,1.31271429 15.8879167,6.43557143 15.8879167,6.43557143 C15.8879167,6.43557143 15.08325,5.07271429 13.6580833,7.26842857 C13.124,8.08985714 13.0970833,9.32557143 11.5614167,10.2027143 C9.50016667,11.3798571 10.1433333,12.9484286 9.43358333,12.9712857 C8.37533333,13.0041429 8.66858333,10.1527143 6.87225,10.6341429 C5.62841667,10.9655714 5.43291667,14.0498571 6.93175,14.5641429 C7.84975,14.8798571 8.42066667,14.5155714 8.42066667,14.5155714 C8.42066667,14.5155714 8.50141667,17.807 7.80158333,18.4884286" id="Fill-20" fill="#1B1F3A" mask="url(#mask-4)"></path>
            </g>
            <path d="M19.1187879,28.0111624 C21.0005973,27.7804953 22.5098436,31.1369983 22.5916614,36.9480367 C22.6734792,42.759075 23.2871127,49.2621149 25.4728168,52.9587042 C27.6585208,56.6552935 29.5534795,57.586834 29.9654906,58.6558876 C30.3760406,59.7249412 26.9879071,58.3690323 26.9879071,58.3690323 C26.9879071,58.3690323 29.7843226,61.6309026 28.8331907,63.383086 C27.8820588,65.132312 24.1155179,62.9720252 21.7895547,59.2902223 C19.6973567,55.9795569 17.7191191,51.9295737 16.8059741,45.0908836 C16.0009453,39.0743148 14.7473798,28.5479072 19.1187879,28.0111624" id="Fill-23" fill="#FFA784"></path>
            <path d="M19.3043582,25.0312879 C16.0936745,25.468418 14.8035856,28.6878216 15.0239567,33.8477283 C15.2443277,39.0061581 15.5825361,42.2624816 15.5825361,42.2624816 C15.5825361,42.2624816 21.2647424,44.6223931 24.9880949,40.8994038 C24.9880949,40.8994038 25.5298404,24.1821333 19.3043582,25.0312879" id="Fill-25" fill="#9DC6C5"></path>
            <path d="M8.14955437,19.0316973 C8.14955437,19.0316973 7.87914075,20.6331981 11.1931161,21.2796897 C13.4578302,21.7215364 14.6253974,19.9789548 14.6253974,19.9789548 L16,22.2874104 C16,22.2874104 14.4662477,24.436181 10.900168,23.919918 C6.89044092,23.340091 7.00029646,21.3277502 7.00029646,21.3277502 C7.01156369,19.5758665 7.56224978,18.8317035 8.14955437,19.0316973" id="Fill-27" fill="#9DC6C5"></path>
        </g>
    </g>
</svg>