<?xml version="1.0" encoding="UTF-8"?>
<svg width="34px" height="31px" viewBox="0 0 34 31" version="1.1" xmlns="http://www.w3.org/2000/svg" xmlns:xlink="http://www.w3.org/1999/xlink">
    <!-- Generator: Sketch 50.2 (55047) - http://www.bohemiancoding.com/sketch -->
    <title>134808</title>
    <desc>Created with Sketch.</desc>
    <defs></defs>
    <g id="Page-1" stroke="none" stroke-width="1" fill="none" fill-rule="evenodd">
        <g id="layout-a" transform="translate(-378.000000, -1483.000000)" fill="#9F9F9F" fill-rule="nonzero">
            <g id="Group-4" transform="translate(137.000000, 1383.000000)">
                <g id="134808" transform="translate(241.000000, 100.000000)">
                    <path d="M5.53333333,13 L12.4666667,13 C12.7616,13 13,12.776 13,12.5 C13,12.224 12.7616,12 12.4666667,12 L5.53333333,12 C5.2384,12 5,12.224 5,12.5 C5,12.776 5.2384,13 5.53333333,13 Z" id="Shape"></path>
                    <path d="M20.4285714,15.5 L5.57142857,15.5 C5.25542857,15.5 5,15.724 5,16 C5,16.276 5.25542857,16.5 5.57142857,16.5 L20.4285714,16.5 C20.7445714,16.5 21,16.276 21,16 C21,15.724 20.7445714,15.5 20.4285714,15.5 Z" id="Shape"></path>
                    <path d="M20.4285714,19 L5.57142857,19 C5.25542857,19 5,19.224 5,19.5 C5,19.776 5.25542857,20 5.57142857,20 L20.4285714,20 C20.7445714,20 21,19.776 21,19.5 C21,19.224 20.7445714,19 20.4285714,19 Z" id="Shape"></path>
                    <path d="M30.6408,0.0394036789 L11.2936667,0 C9.44066667,0 7.93333333,1.4973398 7.93333333,3.33805451 L7.93333333,6.22240381 L3.36033333,6.23197327 C1.50733333,6.23197327 0,7.72931307 0,9.57002778 L0,21.4705017 C0,23.3112164 1.50733333,24.8079933 3.36033333,24.8079933 L6.8,24.8079933 L6.8,30.4370903 C6.8,30.669572 6.94393333,30.8784115 7.16266667,30.9622851 C7.22896667,30.987616 7.2981,31 7.36666667,31 C7.52306667,31 7.67663333,30.9352654 7.786,30.8159285 L13.2849333,24.8068675 L22.7063333,24.7685896 C24.5593333,24.7685896 26.0666667,23.2712498 26.0666667,21.431098 L26.0666667,21.3674892 L29.0473333,24.6244848 C29.1567,24.7438216 29.3102667,24.8085562 29.4666667,24.8085562 C29.5352333,24.8085562 29.6043667,24.7961722 29.6706667,24.7708413 C29.8894,24.6869677 30.0333333,24.4781282 30.0333333,24.2456465 L30.0333333,18.6165495 L30.6396667,18.6165495 C32.4926667,18.6165495 34,17.1192097 34,15.2790579 L34,3.37745819 C34,1.53730639 32.4932333,0.0399665886 30.6408,0.0394036789 Z M24.9333333,21.4305351 C24.9333333,22.6503604 23.9343,23.6422073 22.7040667,23.6422073 L13.0310667,23.681611 C12.8724,23.6821739 12.7205333,23.7491602 12.614,23.8656825 L7.93333333,28.9808429 L7.93333333,24.2445207 C7.93333333,23.9337946 7.68003333,23.681611 7.36666667,23.681611 L3.36033333,23.681611 C2.13236667,23.681611 1.13333333,22.6892012 1.13333333,21.4699388 L1.13333333,9.56946487 C1.13333333,8.34963956 2.13236667,7.35722976 3.36146667,7.35722976 L8.5,7.34653447 C8.5,7.34653447 8.5,7.34653447 8.5,7.34653447 C8.50056667,7.34653447 8.50056667,7.34653447 8.50113333,7.34653447 L22.7063333,7.31726317 C23.9343,7.31726317 24.9333333,8.30967297 24.9333333,9.52949828 L24.9333333,19.910116 L24.9333333,21.4305351 Z M32.8666667,15.2779321 C32.8666667,16.4977574 31.8676333,17.4896043 30.6396667,17.4896043 L29.4666667,17.4896043 C29.1533,17.4896043 28.9,17.7417879 28.9,18.052514 L28.9,22.7888362 L26.0666667,19.6928329 L26.0666667,9.53006119 C26.0666667,7.68934648 24.5593333,6.19200668 22.7052,6.19200668 L9.06666667,6.21958926 L9.06666667,3.3374916 C9.06666667,2.11766629 10.0657,1.12525649 11.2925333,1.12525649 L30.6391,1.16466017 C30.6396667,1.16466017 30.6396667,1.16466017 30.6402333,1.16466017 C31.8682,1.16466017 32.8672333,2.15706996 32.8672333,3.37689528 L32.8672333,15.2779321 L32.8666667,15.2779321 Z" id="Shape"></path>
                </g>
            </g>
        </g>
    </g>
</svg>